%TF.GenerationSoftware,KiCad,Pcbnew,(6.0.7)*%
%TF.CreationDate,2022-09-01T00:20:10+02:00*%
%TF.ProjectId,ES9033_prototype,45533930-3333-45f7-9072-6f746f747970,rev?*%
%TF.SameCoordinates,Original*%
%TF.FileFunction,Paste,Top*%
%TF.FilePolarity,Positive*%
%FSLAX46Y46*%
G04 Gerber Fmt 4.6, Leading zero omitted, Abs format (unit mm)*
G04 Created by KiCad (PCBNEW (6.0.7)) date 2022-09-01 00:20:10*
%MOMM*%
%LPD*%
G01*
G04 APERTURE LIST*
G04 Aperture macros list*
%AMRoundRect*
0 Rectangle with rounded corners*
0 $1 Rounding radius*
0 $2 $3 $4 $5 $6 $7 $8 $9 X,Y pos of 4 corners*
0 Add a 4 corners polygon primitive as box body*
4,1,4,$2,$3,$4,$5,$6,$7,$8,$9,$2,$3,0*
0 Add four circle primitives for the rounded corners*
1,1,$1+$1,$2,$3*
1,1,$1+$1,$4,$5*
1,1,$1+$1,$6,$7*
1,1,$1+$1,$8,$9*
0 Add four rect primitives between the rounded corners*
20,1,$1+$1,$2,$3,$4,$5,0*
20,1,$1+$1,$4,$5,$6,$7,0*
20,1,$1+$1,$6,$7,$8,$9,0*
20,1,$1+$1,$8,$9,$2,$3,0*%
G04 Aperture macros list end*
%ADD10RoundRect,0.250000X-0.262500X-0.450000X0.262500X-0.450000X0.262500X0.450000X-0.262500X0.450000X0*%
%ADD11RoundRect,0.250000X0.450000X-0.262500X0.450000X0.262500X-0.450000X0.262500X-0.450000X-0.262500X0*%
%ADD12RoundRect,0.250000X0.262500X0.450000X-0.262500X0.450000X-0.262500X-0.450000X0.262500X-0.450000X0*%
%ADD13RoundRect,0.250000X0.250000X0.475000X-0.250000X0.475000X-0.250000X-0.475000X0.250000X-0.475000X0*%
%ADD14RoundRect,0.172500X-0.332500X0.172500X-0.332500X-0.172500X0.332500X-0.172500X0.332500X0.172500X0*%
%ADD15RoundRect,0.062500X-0.062500X0.350000X-0.062500X-0.350000X0.062500X-0.350000X0.062500X0.350000X0*%
%ADD16RoundRect,0.250000X-0.250000X-0.475000X0.250000X-0.475000X0.250000X0.475000X-0.250000X0.475000X0*%
%ADD17RoundRect,0.250000X-0.325000X-0.650000X0.325000X-0.650000X0.325000X0.650000X-0.325000X0.650000X0*%
%ADD18RoundRect,0.173913X-0.226087X0.401087X-0.226087X-0.401087X0.226087X-0.401087X0.226087X0.401087X0*%
%ADD19RoundRect,0.250000X-0.450000X0.262500X-0.450000X-0.262500X0.450000X-0.262500X0.450000X0.262500X0*%
%ADD20RoundRect,0.250000X-0.475000X0.250000X-0.475000X-0.250000X0.475000X-0.250000X0.475000X0.250000X0*%
%ADD21RoundRect,0.250000X0.475000X-0.250000X0.475000X0.250000X-0.475000X0.250000X-0.475000X-0.250000X0*%
%ADD22RoundRect,0.225000X0.225000X-0.225000X0.225000X0.225000X-0.225000X0.225000X-0.225000X-0.225000X0*%
%ADD23RoundRect,0.062500X0.062500X-0.337500X0.062500X0.337500X-0.062500X0.337500X-0.062500X-0.337500X0*%
%ADD24RoundRect,0.062500X0.337500X-0.062500X0.337500X0.062500X-0.337500X0.062500X-0.337500X-0.062500X0*%
G04 APERTURE END LIST*
D10*
%TO.C,R301*%
X78087500Y-66250000D03*
X79912500Y-66250000D03*
%TD*%
D11*
%TO.C,R302*%
X74250000Y-60912500D03*
X74250000Y-59087500D03*
%TD*%
%TO.C,R203*%
X46750000Y-72662500D03*
X46750000Y-70837500D03*
%TD*%
%TO.C,R204*%
X46750000Y-77662500D03*
X46750000Y-75837500D03*
%TD*%
%TO.C,R303*%
X74250000Y-57412500D03*
X74250000Y-55587500D03*
%TD*%
D12*
%TO.C,R205*%
X56912500Y-50750000D03*
X55087500Y-50750000D03*
%TD*%
D13*
%TO.C,C201*%
X59950000Y-76750000D03*
X58050000Y-76750000D03*
%TD*%
D14*
%TO.C,U301*%
X78125000Y-58125000D03*
X76875000Y-57275000D03*
X76875000Y-58125000D03*
X78125000Y-57275000D03*
D15*
X78500000Y-56237500D03*
X78000000Y-56237500D03*
X77500000Y-56237500D03*
X77000000Y-56237500D03*
X76500000Y-56237500D03*
X76500000Y-59162500D03*
X77000000Y-59162500D03*
X77500000Y-59162500D03*
X78000000Y-59162500D03*
X78500000Y-59162500D03*
%TD*%
D11*
%TO.C,R202*%
X73500000Y-78825000D03*
X73500000Y-77000000D03*
%TD*%
D16*
%TO.C,C208*%
X65800000Y-66750000D03*
X67700000Y-66750000D03*
%TD*%
%TO.C,C205*%
X65800000Y-69250000D03*
X67700000Y-69250000D03*
%TD*%
D17*
%TO.C,C302*%
X77525000Y-63525000D03*
X80475000Y-63525000D03*
%TD*%
D13*
%TO.C,C204*%
X59950000Y-74500000D03*
X58050000Y-74500000D03*
%TD*%
D18*
%TO.C,C303*%
X82500000Y-57800000D03*
X81500000Y-57800000D03*
X82500000Y-60750000D03*
X81500000Y-60750000D03*
%TD*%
D17*
%TO.C,C301*%
X78525000Y-53525000D03*
X81475000Y-53525000D03*
%TD*%
D16*
%TO.C,C202*%
X66050000Y-71750000D03*
X67950000Y-71750000D03*
%TD*%
D19*
%TO.C,R201*%
X73500000Y-81750000D03*
X73500000Y-83575000D03*
%TD*%
D16*
%TO.C,C203*%
X65800000Y-64000000D03*
X67700000Y-64000000D03*
%TD*%
D13*
%TO.C,C211*%
X59300000Y-64500000D03*
X61200000Y-64500000D03*
%TD*%
D20*
%TO.C,C206*%
X55750000Y-71300000D03*
X55750000Y-73200000D03*
%TD*%
D21*
%TO.C,C210*%
X76250000Y-78862500D03*
X76250000Y-76962500D03*
%TD*%
D10*
%TO.C,R206*%
X61837500Y-50750000D03*
X63662500Y-50750000D03*
%TD*%
D22*
%TO.C,U201*%
X61500000Y-68500000D03*
X60380000Y-68500000D03*
X59260000Y-70740000D03*
X59260000Y-69620000D03*
X60380000Y-69620000D03*
X61500000Y-70740000D03*
X59260000Y-68500000D03*
X60380000Y-70740000D03*
X61500000Y-69620000D03*
D23*
X58880000Y-72070000D03*
X59380000Y-72070000D03*
X59880000Y-72070000D03*
X60380000Y-72070000D03*
X60880000Y-72070000D03*
X61380000Y-72070000D03*
X61880000Y-72070000D03*
D24*
X62830000Y-71120000D03*
X62830000Y-70620000D03*
X62830000Y-70120000D03*
X62830000Y-69620000D03*
X62830000Y-69120000D03*
X62830000Y-68620000D03*
X62830000Y-68120000D03*
D23*
X61880000Y-67170000D03*
X61380000Y-67170000D03*
X60880000Y-67170000D03*
X60380000Y-67170000D03*
X59880000Y-67170000D03*
X59380000Y-67170000D03*
X58880000Y-67170000D03*
D24*
X57930000Y-68120000D03*
X57930000Y-68620000D03*
X57930000Y-69120000D03*
X57930000Y-69620000D03*
X57930000Y-70120000D03*
X57930000Y-70620000D03*
X57930000Y-71120000D03*
%TD*%
D21*
%TO.C,C207*%
X63500000Y-65450000D03*
X63500000Y-63550000D03*
%TD*%
D20*
%TO.C,C209*%
X76250000Y-81712500D03*
X76250000Y-83612500D03*
%TD*%
M02*
