%TF.GenerationSoftware,KiCad,Pcbnew,(6.0.7)*%
%TF.CreationDate,2022-09-01T00:20:10+02:00*%
%TF.ProjectId,ES9033_prototype,45533930-3333-45f7-9072-6f746f747970,rev?*%
%TF.SameCoordinates,Original*%
%TF.FileFunction,Legend,Top*%
%TF.FilePolarity,Positive*%
%FSLAX46Y46*%
G04 Gerber Fmt 4.6, Leading zero omitted, Abs format (unit mm)*
G04 Created by KiCad (PCBNEW (6.0.7)) date 2022-09-01 00:20:10*
%MOMM*%
%LPD*%
G01*
G04 APERTURE LIST*
%ADD10C,0.150000*%
%ADD11C,0.120000*%
G04 APERTURE END LIST*
D10*
%TO.C,R301*%
X81630952Y-66702380D02*
X81297619Y-66226190D01*
X81059523Y-66702380D02*
X81059523Y-65702380D01*
X81440476Y-65702380D01*
X81535714Y-65750000D01*
X81583333Y-65797619D01*
X81630952Y-65892857D01*
X81630952Y-66035714D01*
X81583333Y-66130952D01*
X81535714Y-66178571D01*
X81440476Y-66226190D01*
X81059523Y-66226190D01*
X81964285Y-65702380D02*
X82583333Y-65702380D01*
X82250000Y-66083333D01*
X82392857Y-66083333D01*
X82488095Y-66130952D01*
X82535714Y-66178571D01*
X82583333Y-66273809D01*
X82583333Y-66511904D01*
X82535714Y-66607142D01*
X82488095Y-66654761D01*
X82392857Y-66702380D01*
X82107142Y-66702380D01*
X82011904Y-66654761D01*
X81964285Y-66607142D01*
X83202380Y-65702380D02*
X83297619Y-65702380D01*
X83392857Y-65750000D01*
X83440476Y-65797619D01*
X83488095Y-65892857D01*
X83535714Y-66083333D01*
X83535714Y-66321428D01*
X83488095Y-66511904D01*
X83440476Y-66607142D01*
X83392857Y-66654761D01*
X83297619Y-66702380D01*
X83202380Y-66702380D01*
X83107142Y-66654761D01*
X83059523Y-66607142D01*
X83011904Y-66511904D01*
X82964285Y-66321428D01*
X82964285Y-66083333D01*
X83011904Y-65892857D01*
X83059523Y-65797619D01*
X83107142Y-65750000D01*
X83202380Y-65702380D01*
X84488095Y-66702380D02*
X83916666Y-66702380D01*
X84202380Y-66702380D02*
X84202380Y-65702380D01*
X84107142Y-65845238D01*
X84011904Y-65940476D01*
X83916666Y-65988095D01*
%TO.C,R302*%
X73130952Y-63202380D02*
X72797619Y-62726190D01*
X72559523Y-63202380D02*
X72559523Y-62202380D01*
X72940476Y-62202380D01*
X73035714Y-62250000D01*
X73083333Y-62297619D01*
X73130952Y-62392857D01*
X73130952Y-62535714D01*
X73083333Y-62630952D01*
X73035714Y-62678571D01*
X72940476Y-62726190D01*
X72559523Y-62726190D01*
X73464285Y-62202380D02*
X74083333Y-62202380D01*
X73750000Y-62583333D01*
X73892857Y-62583333D01*
X73988095Y-62630952D01*
X74035714Y-62678571D01*
X74083333Y-62773809D01*
X74083333Y-63011904D01*
X74035714Y-63107142D01*
X73988095Y-63154761D01*
X73892857Y-63202380D01*
X73607142Y-63202380D01*
X73511904Y-63154761D01*
X73464285Y-63107142D01*
X74702380Y-62202380D02*
X74797619Y-62202380D01*
X74892857Y-62250000D01*
X74940476Y-62297619D01*
X74988095Y-62392857D01*
X75035714Y-62583333D01*
X75035714Y-62821428D01*
X74988095Y-63011904D01*
X74940476Y-63107142D01*
X74892857Y-63154761D01*
X74797619Y-63202380D01*
X74702380Y-63202380D01*
X74607142Y-63154761D01*
X74559523Y-63107142D01*
X74511904Y-63011904D01*
X74464285Y-62821428D01*
X74464285Y-62583333D01*
X74511904Y-62392857D01*
X74559523Y-62297619D01*
X74607142Y-62250000D01*
X74702380Y-62202380D01*
X75416666Y-62297619D02*
X75464285Y-62250000D01*
X75559523Y-62202380D01*
X75797619Y-62202380D01*
X75892857Y-62250000D01*
X75940476Y-62297619D01*
X75988095Y-62392857D01*
X75988095Y-62488095D01*
X75940476Y-62630952D01*
X75369047Y-63202380D01*
X75988095Y-63202380D01*
%TO.C,R203*%
X42630952Y-72202380D02*
X42297619Y-71726190D01*
X42059523Y-72202380D02*
X42059523Y-71202380D01*
X42440476Y-71202380D01*
X42535714Y-71250000D01*
X42583333Y-71297619D01*
X42630952Y-71392857D01*
X42630952Y-71535714D01*
X42583333Y-71630952D01*
X42535714Y-71678571D01*
X42440476Y-71726190D01*
X42059523Y-71726190D01*
X43011904Y-71297619D02*
X43059523Y-71250000D01*
X43154761Y-71202380D01*
X43392857Y-71202380D01*
X43488095Y-71250000D01*
X43535714Y-71297619D01*
X43583333Y-71392857D01*
X43583333Y-71488095D01*
X43535714Y-71630952D01*
X42964285Y-72202380D01*
X43583333Y-72202380D01*
X44202380Y-71202380D02*
X44297619Y-71202380D01*
X44392857Y-71250000D01*
X44440476Y-71297619D01*
X44488095Y-71392857D01*
X44535714Y-71583333D01*
X44535714Y-71821428D01*
X44488095Y-72011904D01*
X44440476Y-72107142D01*
X44392857Y-72154761D01*
X44297619Y-72202380D01*
X44202380Y-72202380D01*
X44107142Y-72154761D01*
X44059523Y-72107142D01*
X44011904Y-72011904D01*
X43964285Y-71821428D01*
X43964285Y-71583333D01*
X44011904Y-71392857D01*
X44059523Y-71297619D01*
X44107142Y-71250000D01*
X44202380Y-71202380D01*
X44869047Y-71202380D02*
X45488095Y-71202380D01*
X45154761Y-71583333D01*
X45297619Y-71583333D01*
X45392857Y-71630952D01*
X45440476Y-71678571D01*
X45488095Y-71773809D01*
X45488095Y-72011904D01*
X45440476Y-72107142D01*
X45392857Y-72154761D01*
X45297619Y-72202380D01*
X45011904Y-72202380D01*
X44916666Y-72154761D01*
X44869047Y-72107142D01*
%TO.C,JP203*%
X48214285Y-79202380D02*
X48214285Y-79916666D01*
X48166666Y-80059523D01*
X48071428Y-80154761D01*
X47928571Y-80202380D01*
X47833333Y-80202380D01*
X48690476Y-80202380D02*
X48690476Y-79202380D01*
X49071428Y-79202380D01*
X49166666Y-79250000D01*
X49214285Y-79297619D01*
X49261904Y-79392857D01*
X49261904Y-79535714D01*
X49214285Y-79630952D01*
X49166666Y-79678571D01*
X49071428Y-79726190D01*
X48690476Y-79726190D01*
X49642857Y-79297619D02*
X49690476Y-79250000D01*
X49785714Y-79202380D01*
X50023809Y-79202380D01*
X50119047Y-79250000D01*
X50166666Y-79297619D01*
X50214285Y-79392857D01*
X50214285Y-79488095D01*
X50166666Y-79630952D01*
X49595238Y-80202380D01*
X50214285Y-80202380D01*
X50833333Y-79202380D02*
X50928571Y-79202380D01*
X51023809Y-79250000D01*
X51071428Y-79297619D01*
X51119047Y-79392857D01*
X51166666Y-79583333D01*
X51166666Y-79821428D01*
X51119047Y-80011904D01*
X51071428Y-80107142D01*
X51023809Y-80154761D01*
X50928571Y-80202380D01*
X50833333Y-80202380D01*
X50738095Y-80154761D01*
X50690476Y-80107142D01*
X50642857Y-80011904D01*
X50595238Y-79821428D01*
X50595238Y-79583333D01*
X50642857Y-79392857D01*
X50690476Y-79297619D01*
X50738095Y-79250000D01*
X50833333Y-79202380D01*
X51500000Y-79202380D02*
X52119047Y-79202380D01*
X51785714Y-79583333D01*
X51928571Y-79583333D01*
X52023809Y-79630952D01*
X52071428Y-79678571D01*
X52119047Y-79773809D01*
X52119047Y-80011904D01*
X52071428Y-80107142D01*
X52023809Y-80154761D01*
X51928571Y-80202380D01*
X51642857Y-80202380D01*
X51547619Y-80154761D01*
X51500000Y-80107142D01*
%TO.C,R204*%
X42630952Y-77452380D02*
X42297619Y-76976190D01*
X42059523Y-77452380D02*
X42059523Y-76452380D01*
X42440476Y-76452380D01*
X42535714Y-76500000D01*
X42583333Y-76547619D01*
X42630952Y-76642857D01*
X42630952Y-76785714D01*
X42583333Y-76880952D01*
X42535714Y-76928571D01*
X42440476Y-76976190D01*
X42059523Y-76976190D01*
X43011904Y-76547619D02*
X43059523Y-76500000D01*
X43154761Y-76452380D01*
X43392857Y-76452380D01*
X43488095Y-76500000D01*
X43535714Y-76547619D01*
X43583333Y-76642857D01*
X43583333Y-76738095D01*
X43535714Y-76880952D01*
X42964285Y-77452380D01*
X43583333Y-77452380D01*
X44202380Y-76452380D02*
X44297619Y-76452380D01*
X44392857Y-76500000D01*
X44440476Y-76547619D01*
X44488095Y-76642857D01*
X44535714Y-76833333D01*
X44535714Y-77071428D01*
X44488095Y-77261904D01*
X44440476Y-77357142D01*
X44392857Y-77404761D01*
X44297619Y-77452380D01*
X44202380Y-77452380D01*
X44107142Y-77404761D01*
X44059523Y-77357142D01*
X44011904Y-77261904D01*
X43964285Y-77071428D01*
X43964285Y-76833333D01*
X44011904Y-76642857D01*
X44059523Y-76547619D01*
X44107142Y-76500000D01*
X44202380Y-76452380D01*
X45392857Y-76785714D02*
X45392857Y-77452380D01*
X45154761Y-76404761D02*
X44916666Y-77119047D01*
X45535714Y-77119047D01*
%TO.C,R303*%
X70130952Y-57202380D02*
X69797619Y-56726190D01*
X69559523Y-57202380D02*
X69559523Y-56202380D01*
X69940476Y-56202380D01*
X70035714Y-56250000D01*
X70083333Y-56297619D01*
X70130952Y-56392857D01*
X70130952Y-56535714D01*
X70083333Y-56630952D01*
X70035714Y-56678571D01*
X69940476Y-56726190D01*
X69559523Y-56726190D01*
X70464285Y-56202380D02*
X71083333Y-56202380D01*
X70750000Y-56583333D01*
X70892857Y-56583333D01*
X70988095Y-56630952D01*
X71035714Y-56678571D01*
X71083333Y-56773809D01*
X71083333Y-57011904D01*
X71035714Y-57107142D01*
X70988095Y-57154761D01*
X70892857Y-57202380D01*
X70607142Y-57202380D01*
X70511904Y-57154761D01*
X70464285Y-57107142D01*
X71702380Y-56202380D02*
X71797619Y-56202380D01*
X71892857Y-56250000D01*
X71940476Y-56297619D01*
X71988095Y-56392857D01*
X72035714Y-56583333D01*
X72035714Y-56821428D01*
X71988095Y-57011904D01*
X71940476Y-57107142D01*
X71892857Y-57154761D01*
X71797619Y-57202380D01*
X71702380Y-57202380D01*
X71607142Y-57154761D01*
X71559523Y-57107142D01*
X71511904Y-57011904D01*
X71464285Y-56821428D01*
X71464285Y-56583333D01*
X71511904Y-56392857D01*
X71559523Y-56297619D01*
X71607142Y-56250000D01*
X71702380Y-56202380D01*
X72369047Y-56202380D02*
X72988095Y-56202380D01*
X72654761Y-56583333D01*
X72797619Y-56583333D01*
X72892857Y-56630952D01*
X72940476Y-56678571D01*
X72988095Y-56773809D01*
X72988095Y-57011904D01*
X72940476Y-57107142D01*
X72892857Y-57154761D01*
X72797619Y-57202380D01*
X72511904Y-57202380D01*
X72416666Y-57154761D01*
X72369047Y-57107142D01*
%TO.C,JP202*%
X40964285Y-63202380D02*
X40964285Y-63916666D01*
X40916666Y-64059523D01*
X40821428Y-64154761D01*
X40678571Y-64202380D01*
X40583333Y-64202380D01*
X41440476Y-64202380D02*
X41440476Y-63202380D01*
X41821428Y-63202380D01*
X41916666Y-63250000D01*
X41964285Y-63297619D01*
X42011904Y-63392857D01*
X42011904Y-63535714D01*
X41964285Y-63630952D01*
X41916666Y-63678571D01*
X41821428Y-63726190D01*
X41440476Y-63726190D01*
X42392857Y-63297619D02*
X42440476Y-63250000D01*
X42535714Y-63202380D01*
X42773809Y-63202380D01*
X42869047Y-63250000D01*
X42916666Y-63297619D01*
X42964285Y-63392857D01*
X42964285Y-63488095D01*
X42916666Y-63630952D01*
X42345238Y-64202380D01*
X42964285Y-64202380D01*
X43583333Y-63202380D02*
X43678571Y-63202380D01*
X43773809Y-63250000D01*
X43821428Y-63297619D01*
X43869047Y-63392857D01*
X43916666Y-63583333D01*
X43916666Y-63821428D01*
X43869047Y-64011904D01*
X43821428Y-64107142D01*
X43773809Y-64154761D01*
X43678571Y-64202380D01*
X43583333Y-64202380D01*
X43488095Y-64154761D01*
X43440476Y-64107142D01*
X43392857Y-64011904D01*
X43345238Y-63821428D01*
X43345238Y-63583333D01*
X43392857Y-63392857D01*
X43440476Y-63297619D01*
X43488095Y-63250000D01*
X43583333Y-63202380D01*
X44297619Y-63297619D02*
X44345238Y-63250000D01*
X44440476Y-63202380D01*
X44678571Y-63202380D01*
X44773809Y-63250000D01*
X44821428Y-63297619D01*
X44869047Y-63392857D01*
X44869047Y-63488095D01*
X44821428Y-63630952D01*
X44250000Y-64202380D01*
X44869047Y-64202380D01*
%TO.C,JP206*%
X65614285Y-50572380D02*
X65614285Y-51286666D01*
X65566666Y-51429523D01*
X65471428Y-51524761D01*
X65328571Y-51572380D01*
X65233333Y-51572380D01*
X66090476Y-51572380D02*
X66090476Y-50572380D01*
X66471428Y-50572380D01*
X66566666Y-50620000D01*
X66614285Y-50667619D01*
X66661904Y-50762857D01*
X66661904Y-50905714D01*
X66614285Y-51000952D01*
X66566666Y-51048571D01*
X66471428Y-51096190D01*
X66090476Y-51096190D01*
X67042857Y-50667619D02*
X67090476Y-50620000D01*
X67185714Y-50572380D01*
X67423809Y-50572380D01*
X67519047Y-50620000D01*
X67566666Y-50667619D01*
X67614285Y-50762857D01*
X67614285Y-50858095D01*
X67566666Y-51000952D01*
X66995238Y-51572380D01*
X67614285Y-51572380D01*
X68233333Y-50572380D02*
X68328571Y-50572380D01*
X68423809Y-50620000D01*
X68471428Y-50667619D01*
X68519047Y-50762857D01*
X68566666Y-50953333D01*
X68566666Y-51191428D01*
X68519047Y-51381904D01*
X68471428Y-51477142D01*
X68423809Y-51524761D01*
X68328571Y-51572380D01*
X68233333Y-51572380D01*
X68138095Y-51524761D01*
X68090476Y-51477142D01*
X68042857Y-51381904D01*
X67995238Y-51191428D01*
X67995238Y-50953333D01*
X68042857Y-50762857D01*
X68090476Y-50667619D01*
X68138095Y-50620000D01*
X68233333Y-50572380D01*
X69423809Y-50572380D02*
X69233333Y-50572380D01*
X69138095Y-50620000D01*
X69090476Y-50667619D01*
X68995238Y-50810476D01*
X68947619Y-51000952D01*
X68947619Y-51381904D01*
X68995238Y-51477142D01*
X69042857Y-51524761D01*
X69138095Y-51572380D01*
X69328571Y-51572380D01*
X69423809Y-51524761D01*
X69471428Y-51477142D01*
X69519047Y-51381904D01*
X69519047Y-51143809D01*
X69471428Y-51048571D01*
X69423809Y-51000952D01*
X69328571Y-50953333D01*
X69138095Y-50953333D01*
X69042857Y-51000952D01*
X68995238Y-51048571D01*
X68947619Y-51143809D01*
%TO.C,R205*%
X54880952Y-49452380D02*
X54547619Y-48976190D01*
X54309523Y-49452380D02*
X54309523Y-48452380D01*
X54690476Y-48452380D01*
X54785714Y-48500000D01*
X54833333Y-48547619D01*
X54880952Y-48642857D01*
X54880952Y-48785714D01*
X54833333Y-48880952D01*
X54785714Y-48928571D01*
X54690476Y-48976190D01*
X54309523Y-48976190D01*
X55261904Y-48547619D02*
X55309523Y-48500000D01*
X55404761Y-48452380D01*
X55642857Y-48452380D01*
X55738095Y-48500000D01*
X55785714Y-48547619D01*
X55833333Y-48642857D01*
X55833333Y-48738095D01*
X55785714Y-48880952D01*
X55214285Y-49452380D01*
X55833333Y-49452380D01*
X56452380Y-48452380D02*
X56547619Y-48452380D01*
X56642857Y-48500000D01*
X56690476Y-48547619D01*
X56738095Y-48642857D01*
X56785714Y-48833333D01*
X56785714Y-49071428D01*
X56738095Y-49261904D01*
X56690476Y-49357142D01*
X56642857Y-49404761D01*
X56547619Y-49452380D01*
X56452380Y-49452380D01*
X56357142Y-49404761D01*
X56309523Y-49357142D01*
X56261904Y-49261904D01*
X56214285Y-49071428D01*
X56214285Y-48833333D01*
X56261904Y-48642857D01*
X56309523Y-48547619D01*
X56357142Y-48500000D01*
X56452380Y-48452380D01*
X57690476Y-48452380D02*
X57214285Y-48452380D01*
X57166666Y-48928571D01*
X57214285Y-48880952D01*
X57309523Y-48833333D01*
X57547619Y-48833333D01*
X57642857Y-48880952D01*
X57690476Y-48928571D01*
X57738095Y-49023809D01*
X57738095Y-49261904D01*
X57690476Y-49357142D01*
X57642857Y-49404761D01*
X57547619Y-49452380D01*
X57309523Y-49452380D01*
X57214285Y-49404761D01*
X57166666Y-49357142D01*
%TO.C,C201*%
X53880952Y-77107142D02*
X53833333Y-77154761D01*
X53690476Y-77202380D01*
X53595238Y-77202380D01*
X53452380Y-77154761D01*
X53357142Y-77059523D01*
X53309523Y-76964285D01*
X53261904Y-76773809D01*
X53261904Y-76630952D01*
X53309523Y-76440476D01*
X53357142Y-76345238D01*
X53452380Y-76250000D01*
X53595238Y-76202380D01*
X53690476Y-76202380D01*
X53833333Y-76250000D01*
X53880952Y-76297619D01*
X54261904Y-76297619D02*
X54309523Y-76250000D01*
X54404761Y-76202380D01*
X54642857Y-76202380D01*
X54738095Y-76250000D01*
X54785714Y-76297619D01*
X54833333Y-76392857D01*
X54833333Y-76488095D01*
X54785714Y-76630952D01*
X54214285Y-77202380D01*
X54833333Y-77202380D01*
X55452380Y-76202380D02*
X55547619Y-76202380D01*
X55642857Y-76250000D01*
X55690476Y-76297619D01*
X55738095Y-76392857D01*
X55785714Y-76583333D01*
X55785714Y-76821428D01*
X55738095Y-77011904D01*
X55690476Y-77107142D01*
X55642857Y-77154761D01*
X55547619Y-77202380D01*
X55452380Y-77202380D01*
X55357142Y-77154761D01*
X55309523Y-77107142D01*
X55261904Y-77011904D01*
X55214285Y-76821428D01*
X55214285Y-76583333D01*
X55261904Y-76392857D01*
X55309523Y-76297619D01*
X55357142Y-76250000D01*
X55452380Y-76202380D01*
X56738095Y-77202380D02*
X56166666Y-77202380D01*
X56452380Y-77202380D02*
X56452380Y-76202380D01*
X56357142Y-76345238D01*
X56261904Y-76440476D01*
X56166666Y-76488095D01*
%TO.C,U301*%
X74035714Y-53452380D02*
X74035714Y-54261904D01*
X74083333Y-54357142D01*
X74130952Y-54404761D01*
X74226190Y-54452380D01*
X74416666Y-54452380D01*
X74511904Y-54404761D01*
X74559523Y-54357142D01*
X74607142Y-54261904D01*
X74607142Y-53452380D01*
X74988095Y-53452380D02*
X75607142Y-53452380D01*
X75273809Y-53833333D01*
X75416666Y-53833333D01*
X75511904Y-53880952D01*
X75559523Y-53928571D01*
X75607142Y-54023809D01*
X75607142Y-54261904D01*
X75559523Y-54357142D01*
X75511904Y-54404761D01*
X75416666Y-54452380D01*
X75130952Y-54452380D01*
X75035714Y-54404761D01*
X74988095Y-54357142D01*
X76226190Y-53452380D02*
X76321428Y-53452380D01*
X76416666Y-53500000D01*
X76464285Y-53547619D01*
X76511904Y-53642857D01*
X76559523Y-53833333D01*
X76559523Y-54071428D01*
X76511904Y-54261904D01*
X76464285Y-54357142D01*
X76416666Y-54404761D01*
X76321428Y-54452380D01*
X76226190Y-54452380D01*
X76130952Y-54404761D01*
X76083333Y-54357142D01*
X76035714Y-54261904D01*
X75988095Y-54071428D01*
X75988095Y-53833333D01*
X76035714Y-53642857D01*
X76083333Y-53547619D01*
X76130952Y-53500000D01*
X76226190Y-53452380D01*
X77511904Y-54452380D02*
X76940476Y-54452380D01*
X77226190Y-54452380D02*
X77226190Y-53452380D01*
X77130952Y-53595238D01*
X77035714Y-53690476D01*
X76940476Y-53738095D01*
%TO.C,R202*%
X71130952Y-75952380D02*
X70797619Y-75476190D01*
X70559523Y-75952380D02*
X70559523Y-74952380D01*
X70940476Y-74952380D01*
X71035714Y-75000000D01*
X71083333Y-75047619D01*
X71130952Y-75142857D01*
X71130952Y-75285714D01*
X71083333Y-75380952D01*
X71035714Y-75428571D01*
X70940476Y-75476190D01*
X70559523Y-75476190D01*
X71511904Y-75047619D02*
X71559523Y-75000000D01*
X71654761Y-74952380D01*
X71892857Y-74952380D01*
X71988095Y-75000000D01*
X72035714Y-75047619D01*
X72083333Y-75142857D01*
X72083333Y-75238095D01*
X72035714Y-75380952D01*
X71464285Y-75952380D01*
X72083333Y-75952380D01*
X72702380Y-74952380D02*
X72797619Y-74952380D01*
X72892857Y-75000000D01*
X72940476Y-75047619D01*
X72988095Y-75142857D01*
X73035714Y-75333333D01*
X73035714Y-75571428D01*
X72988095Y-75761904D01*
X72940476Y-75857142D01*
X72892857Y-75904761D01*
X72797619Y-75952380D01*
X72702380Y-75952380D01*
X72607142Y-75904761D01*
X72559523Y-75857142D01*
X72511904Y-75761904D01*
X72464285Y-75571428D01*
X72464285Y-75333333D01*
X72511904Y-75142857D01*
X72559523Y-75047619D01*
X72607142Y-75000000D01*
X72702380Y-74952380D01*
X73416666Y-75047619D02*
X73464285Y-75000000D01*
X73559523Y-74952380D01*
X73797619Y-74952380D01*
X73892857Y-75000000D01*
X73940476Y-75047619D01*
X73988095Y-75142857D01*
X73988095Y-75238095D01*
X73940476Y-75380952D01*
X73369047Y-75952380D01*
X73988095Y-75952380D01*
%TO.C,C208*%
X70130952Y-67107142D02*
X70083333Y-67154761D01*
X69940476Y-67202380D01*
X69845238Y-67202380D01*
X69702380Y-67154761D01*
X69607142Y-67059523D01*
X69559523Y-66964285D01*
X69511904Y-66773809D01*
X69511904Y-66630952D01*
X69559523Y-66440476D01*
X69607142Y-66345238D01*
X69702380Y-66250000D01*
X69845238Y-66202380D01*
X69940476Y-66202380D01*
X70083333Y-66250000D01*
X70130952Y-66297619D01*
X70511904Y-66297619D02*
X70559523Y-66250000D01*
X70654761Y-66202380D01*
X70892857Y-66202380D01*
X70988095Y-66250000D01*
X71035714Y-66297619D01*
X71083333Y-66392857D01*
X71083333Y-66488095D01*
X71035714Y-66630952D01*
X70464285Y-67202380D01*
X71083333Y-67202380D01*
X71702380Y-66202380D02*
X71797619Y-66202380D01*
X71892857Y-66250000D01*
X71940476Y-66297619D01*
X71988095Y-66392857D01*
X72035714Y-66583333D01*
X72035714Y-66821428D01*
X71988095Y-67011904D01*
X71940476Y-67107142D01*
X71892857Y-67154761D01*
X71797619Y-67202380D01*
X71702380Y-67202380D01*
X71607142Y-67154761D01*
X71559523Y-67107142D01*
X71511904Y-67011904D01*
X71464285Y-66821428D01*
X71464285Y-66583333D01*
X71511904Y-66392857D01*
X71559523Y-66297619D01*
X71607142Y-66250000D01*
X71702380Y-66202380D01*
X72607142Y-66630952D02*
X72511904Y-66583333D01*
X72464285Y-66535714D01*
X72416666Y-66440476D01*
X72416666Y-66392857D01*
X72464285Y-66297619D01*
X72511904Y-66250000D01*
X72607142Y-66202380D01*
X72797619Y-66202380D01*
X72892857Y-66250000D01*
X72940476Y-66297619D01*
X72988095Y-66392857D01*
X72988095Y-66440476D01*
X72940476Y-66535714D01*
X72892857Y-66583333D01*
X72797619Y-66630952D01*
X72607142Y-66630952D01*
X72511904Y-66678571D01*
X72464285Y-66726190D01*
X72416666Y-66821428D01*
X72416666Y-67011904D01*
X72464285Y-67107142D01*
X72511904Y-67154761D01*
X72607142Y-67202380D01*
X72797619Y-67202380D01*
X72892857Y-67154761D01*
X72940476Y-67107142D01*
X72988095Y-67011904D01*
X72988095Y-66821428D01*
X72940476Y-66726190D01*
X72892857Y-66678571D01*
X72797619Y-66630952D01*
%TO.C,C205*%
X70130952Y-69607142D02*
X70083333Y-69654761D01*
X69940476Y-69702380D01*
X69845238Y-69702380D01*
X69702380Y-69654761D01*
X69607142Y-69559523D01*
X69559523Y-69464285D01*
X69511904Y-69273809D01*
X69511904Y-69130952D01*
X69559523Y-68940476D01*
X69607142Y-68845238D01*
X69702380Y-68750000D01*
X69845238Y-68702380D01*
X69940476Y-68702380D01*
X70083333Y-68750000D01*
X70130952Y-68797619D01*
X70511904Y-68797619D02*
X70559523Y-68750000D01*
X70654761Y-68702380D01*
X70892857Y-68702380D01*
X70988095Y-68750000D01*
X71035714Y-68797619D01*
X71083333Y-68892857D01*
X71083333Y-68988095D01*
X71035714Y-69130952D01*
X70464285Y-69702380D01*
X71083333Y-69702380D01*
X71702380Y-68702380D02*
X71797619Y-68702380D01*
X71892857Y-68750000D01*
X71940476Y-68797619D01*
X71988095Y-68892857D01*
X72035714Y-69083333D01*
X72035714Y-69321428D01*
X71988095Y-69511904D01*
X71940476Y-69607142D01*
X71892857Y-69654761D01*
X71797619Y-69702380D01*
X71702380Y-69702380D01*
X71607142Y-69654761D01*
X71559523Y-69607142D01*
X71511904Y-69511904D01*
X71464285Y-69321428D01*
X71464285Y-69083333D01*
X71511904Y-68892857D01*
X71559523Y-68797619D01*
X71607142Y-68750000D01*
X71702380Y-68702380D01*
X72940476Y-68702380D02*
X72464285Y-68702380D01*
X72416666Y-69178571D01*
X72464285Y-69130952D01*
X72559523Y-69083333D01*
X72797619Y-69083333D01*
X72892857Y-69130952D01*
X72940476Y-69178571D01*
X72988095Y-69273809D01*
X72988095Y-69511904D01*
X72940476Y-69607142D01*
X72892857Y-69654761D01*
X72797619Y-69702380D01*
X72559523Y-69702380D01*
X72464285Y-69654761D01*
X72416666Y-69607142D01*
%TO.C,C302*%
X82130952Y-63857142D02*
X82083333Y-63904761D01*
X81940476Y-63952380D01*
X81845238Y-63952380D01*
X81702380Y-63904761D01*
X81607142Y-63809523D01*
X81559523Y-63714285D01*
X81511904Y-63523809D01*
X81511904Y-63380952D01*
X81559523Y-63190476D01*
X81607142Y-63095238D01*
X81702380Y-63000000D01*
X81845238Y-62952380D01*
X81940476Y-62952380D01*
X82083333Y-63000000D01*
X82130952Y-63047619D01*
X82464285Y-62952380D02*
X83083333Y-62952380D01*
X82750000Y-63333333D01*
X82892857Y-63333333D01*
X82988095Y-63380952D01*
X83035714Y-63428571D01*
X83083333Y-63523809D01*
X83083333Y-63761904D01*
X83035714Y-63857142D01*
X82988095Y-63904761D01*
X82892857Y-63952380D01*
X82607142Y-63952380D01*
X82511904Y-63904761D01*
X82464285Y-63857142D01*
X83702380Y-62952380D02*
X83797619Y-62952380D01*
X83892857Y-63000000D01*
X83940476Y-63047619D01*
X83988095Y-63142857D01*
X84035714Y-63333333D01*
X84035714Y-63571428D01*
X83988095Y-63761904D01*
X83940476Y-63857142D01*
X83892857Y-63904761D01*
X83797619Y-63952380D01*
X83702380Y-63952380D01*
X83607142Y-63904761D01*
X83559523Y-63857142D01*
X83511904Y-63761904D01*
X83464285Y-63571428D01*
X83464285Y-63333333D01*
X83511904Y-63142857D01*
X83559523Y-63047619D01*
X83607142Y-63000000D01*
X83702380Y-62952380D01*
X84416666Y-63047619D02*
X84464285Y-63000000D01*
X84559523Y-62952380D01*
X84797619Y-62952380D01*
X84892857Y-63000000D01*
X84940476Y-63047619D01*
X84988095Y-63142857D01*
X84988095Y-63238095D01*
X84940476Y-63380952D01*
X84369047Y-63952380D01*
X84988095Y-63952380D01*
%TO.C,C204*%
X53880952Y-75107142D02*
X53833333Y-75154761D01*
X53690476Y-75202380D01*
X53595238Y-75202380D01*
X53452380Y-75154761D01*
X53357142Y-75059523D01*
X53309523Y-74964285D01*
X53261904Y-74773809D01*
X53261904Y-74630952D01*
X53309523Y-74440476D01*
X53357142Y-74345238D01*
X53452380Y-74250000D01*
X53595238Y-74202380D01*
X53690476Y-74202380D01*
X53833333Y-74250000D01*
X53880952Y-74297619D01*
X54261904Y-74297619D02*
X54309523Y-74250000D01*
X54404761Y-74202380D01*
X54642857Y-74202380D01*
X54738095Y-74250000D01*
X54785714Y-74297619D01*
X54833333Y-74392857D01*
X54833333Y-74488095D01*
X54785714Y-74630952D01*
X54214285Y-75202380D01*
X54833333Y-75202380D01*
X55452380Y-74202380D02*
X55547619Y-74202380D01*
X55642857Y-74250000D01*
X55690476Y-74297619D01*
X55738095Y-74392857D01*
X55785714Y-74583333D01*
X55785714Y-74821428D01*
X55738095Y-75011904D01*
X55690476Y-75107142D01*
X55642857Y-75154761D01*
X55547619Y-75202380D01*
X55452380Y-75202380D01*
X55357142Y-75154761D01*
X55309523Y-75107142D01*
X55261904Y-75011904D01*
X55214285Y-74821428D01*
X55214285Y-74583333D01*
X55261904Y-74392857D01*
X55309523Y-74297619D01*
X55357142Y-74250000D01*
X55452380Y-74202380D01*
X56642857Y-74535714D02*
X56642857Y-75202380D01*
X56404761Y-74154761D02*
X56166666Y-74869047D01*
X56785714Y-74869047D01*
%TO.C,C303*%
X81380952Y-56607142D02*
X81333333Y-56654761D01*
X81190476Y-56702380D01*
X81095238Y-56702380D01*
X80952380Y-56654761D01*
X80857142Y-56559523D01*
X80809523Y-56464285D01*
X80761904Y-56273809D01*
X80761904Y-56130952D01*
X80809523Y-55940476D01*
X80857142Y-55845238D01*
X80952380Y-55750000D01*
X81095238Y-55702380D01*
X81190476Y-55702380D01*
X81333333Y-55750000D01*
X81380952Y-55797619D01*
X81714285Y-55702380D02*
X82333333Y-55702380D01*
X82000000Y-56083333D01*
X82142857Y-56083333D01*
X82238095Y-56130952D01*
X82285714Y-56178571D01*
X82333333Y-56273809D01*
X82333333Y-56511904D01*
X82285714Y-56607142D01*
X82238095Y-56654761D01*
X82142857Y-56702380D01*
X81857142Y-56702380D01*
X81761904Y-56654761D01*
X81714285Y-56607142D01*
X82952380Y-55702380D02*
X83047619Y-55702380D01*
X83142857Y-55750000D01*
X83190476Y-55797619D01*
X83238095Y-55892857D01*
X83285714Y-56083333D01*
X83285714Y-56321428D01*
X83238095Y-56511904D01*
X83190476Y-56607142D01*
X83142857Y-56654761D01*
X83047619Y-56702380D01*
X82952380Y-56702380D01*
X82857142Y-56654761D01*
X82809523Y-56607142D01*
X82761904Y-56511904D01*
X82714285Y-56321428D01*
X82714285Y-56083333D01*
X82761904Y-55892857D01*
X82809523Y-55797619D01*
X82857142Y-55750000D01*
X82952380Y-55702380D01*
X83619047Y-55702380D02*
X84238095Y-55702380D01*
X83904761Y-56083333D01*
X84047619Y-56083333D01*
X84142857Y-56130952D01*
X84190476Y-56178571D01*
X84238095Y-56273809D01*
X84238095Y-56511904D01*
X84190476Y-56607142D01*
X84142857Y-56654761D01*
X84047619Y-56702380D01*
X83761904Y-56702380D01*
X83666666Y-56654761D01*
X83619047Y-56607142D01*
%TO.C,J103*%
X78514285Y-73252380D02*
X78514285Y-73966666D01*
X78466666Y-74109523D01*
X78371428Y-74204761D01*
X78228571Y-74252380D01*
X78133333Y-74252380D01*
X79514285Y-74252380D02*
X78942857Y-74252380D01*
X79228571Y-74252380D02*
X79228571Y-73252380D01*
X79133333Y-73395238D01*
X79038095Y-73490476D01*
X78942857Y-73538095D01*
X80133333Y-73252380D02*
X80228571Y-73252380D01*
X80323809Y-73300000D01*
X80371428Y-73347619D01*
X80419047Y-73442857D01*
X80466666Y-73633333D01*
X80466666Y-73871428D01*
X80419047Y-74061904D01*
X80371428Y-74157142D01*
X80323809Y-74204761D01*
X80228571Y-74252380D01*
X80133333Y-74252380D01*
X80038095Y-74204761D01*
X79990476Y-74157142D01*
X79942857Y-74061904D01*
X79895238Y-73871428D01*
X79895238Y-73633333D01*
X79942857Y-73442857D01*
X79990476Y-73347619D01*
X80038095Y-73300000D01*
X80133333Y-73252380D01*
X80800000Y-73252380D02*
X81419047Y-73252380D01*
X81085714Y-73633333D01*
X81228571Y-73633333D01*
X81323809Y-73680952D01*
X81371428Y-73728571D01*
X81419047Y-73823809D01*
X81419047Y-74061904D01*
X81371428Y-74157142D01*
X81323809Y-74204761D01*
X81228571Y-74252380D01*
X80942857Y-74252380D01*
X80847619Y-74204761D01*
X80800000Y-74157142D01*
%TO.C,C301*%
X79130952Y-52107142D02*
X79083333Y-52154761D01*
X78940476Y-52202380D01*
X78845238Y-52202380D01*
X78702380Y-52154761D01*
X78607142Y-52059523D01*
X78559523Y-51964285D01*
X78511904Y-51773809D01*
X78511904Y-51630952D01*
X78559523Y-51440476D01*
X78607142Y-51345238D01*
X78702380Y-51250000D01*
X78845238Y-51202380D01*
X78940476Y-51202380D01*
X79083333Y-51250000D01*
X79130952Y-51297619D01*
X79464285Y-51202380D02*
X80083333Y-51202380D01*
X79750000Y-51583333D01*
X79892857Y-51583333D01*
X79988095Y-51630952D01*
X80035714Y-51678571D01*
X80083333Y-51773809D01*
X80083333Y-52011904D01*
X80035714Y-52107142D01*
X79988095Y-52154761D01*
X79892857Y-52202380D01*
X79607142Y-52202380D01*
X79511904Y-52154761D01*
X79464285Y-52107142D01*
X80702380Y-51202380D02*
X80797619Y-51202380D01*
X80892857Y-51250000D01*
X80940476Y-51297619D01*
X80988095Y-51392857D01*
X81035714Y-51583333D01*
X81035714Y-51821428D01*
X80988095Y-52011904D01*
X80940476Y-52107142D01*
X80892857Y-52154761D01*
X80797619Y-52202380D01*
X80702380Y-52202380D01*
X80607142Y-52154761D01*
X80559523Y-52107142D01*
X80511904Y-52011904D01*
X80464285Y-51821428D01*
X80464285Y-51583333D01*
X80511904Y-51392857D01*
X80559523Y-51297619D01*
X80607142Y-51250000D01*
X80702380Y-51202380D01*
X81988095Y-52202380D02*
X81416666Y-52202380D01*
X81702380Y-52202380D02*
X81702380Y-51202380D01*
X81607142Y-51345238D01*
X81511904Y-51440476D01*
X81416666Y-51488095D01*
%TO.C,JP204*%
X46214285Y-53452380D02*
X46214285Y-54166666D01*
X46166666Y-54309523D01*
X46071428Y-54404761D01*
X45928571Y-54452380D01*
X45833333Y-54452380D01*
X46690476Y-54452380D02*
X46690476Y-53452380D01*
X47071428Y-53452380D01*
X47166666Y-53500000D01*
X47214285Y-53547619D01*
X47261904Y-53642857D01*
X47261904Y-53785714D01*
X47214285Y-53880952D01*
X47166666Y-53928571D01*
X47071428Y-53976190D01*
X46690476Y-53976190D01*
X47642857Y-53547619D02*
X47690476Y-53500000D01*
X47785714Y-53452380D01*
X48023809Y-53452380D01*
X48119047Y-53500000D01*
X48166666Y-53547619D01*
X48214285Y-53642857D01*
X48214285Y-53738095D01*
X48166666Y-53880952D01*
X47595238Y-54452380D01*
X48214285Y-54452380D01*
X48833333Y-53452380D02*
X48928571Y-53452380D01*
X49023809Y-53500000D01*
X49071428Y-53547619D01*
X49119047Y-53642857D01*
X49166666Y-53833333D01*
X49166666Y-54071428D01*
X49119047Y-54261904D01*
X49071428Y-54357142D01*
X49023809Y-54404761D01*
X48928571Y-54452380D01*
X48833333Y-54452380D01*
X48738095Y-54404761D01*
X48690476Y-54357142D01*
X48642857Y-54261904D01*
X48595238Y-54071428D01*
X48595238Y-53833333D01*
X48642857Y-53642857D01*
X48690476Y-53547619D01*
X48738095Y-53500000D01*
X48833333Y-53452380D01*
X50023809Y-53785714D02*
X50023809Y-54452380D01*
X49785714Y-53404761D02*
X49547619Y-54119047D01*
X50166666Y-54119047D01*
%TO.C,H101*%
X35535714Y-81902380D02*
X35535714Y-80902380D01*
X35535714Y-81378571D02*
X36107142Y-81378571D01*
X36107142Y-81902380D02*
X36107142Y-80902380D01*
X37107142Y-81902380D02*
X36535714Y-81902380D01*
X36821428Y-81902380D02*
X36821428Y-80902380D01*
X36726190Y-81045238D01*
X36630952Y-81140476D01*
X36535714Y-81188095D01*
X37726190Y-80902380D02*
X37821428Y-80902380D01*
X37916666Y-80950000D01*
X37964285Y-80997619D01*
X38011904Y-81092857D01*
X38059523Y-81283333D01*
X38059523Y-81521428D01*
X38011904Y-81711904D01*
X37964285Y-81807142D01*
X37916666Y-81854761D01*
X37821428Y-81902380D01*
X37726190Y-81902380D01*
X37630952Y-81854761D01*
X37583333Y-81807142D01*
X37535714Y-81711904D01*
X37488095Y-81521428D01*
X37488095Y-81283333D01*
X37535714Y-81092857D01*
X37583333Y-80997619D01*
X37630952Y-80950000D01*
X37726190Y-80902380D01*
X39011904Y-81902380D02*
X38440476Y-81902380D01*
X38726190Y-81902380D02*
X38726190Y-80902380D01*
X38630952Y-81045238D01*
X38535714Y-81140476D01*
X38440476Y-81188095D01*
%TO.C,C202*%
X70380952Y-72107142D02*
X70333333Y-72154761D01*
X70190476Y-72202380D01*
X70095238Y-72202380D01*
X69952380Y-72154761D01*
X69857142Y-72059523D01*
X69809523Y-71964285D01*
X69761904Y-71773809D01*
X69761904Y-71630952D01*
X69809523Y-71440476D01*
X69857142Y-71345238D01*
X69952380Y-71250000D01*
X70095238Y-71202380D01*
X70190476Y-71202380D01*
X70333333Y-71250000D01*
X70380952Y-71297619D01*
X70761904Y-71297619D02*
X70809523Y-71250000D01*
X70904761Y-71202380D01*
X71142857Y-71202380D01*
X71238095Y-71250000D01*
X71285714Y-71297619D01*
X71333333Y-71392857D01*
X71333333Y-71488095D01*
X71285714Y-71630952D01*
X70714285Y-72202380D01*
X71333333Y-72202380D01*
X71952380Y-71202380D02*
X72047619Y-71202380D01*
X72142857Y-71250000D01*
X72190476Y-71297619D01*
X72238095Y-71392857D01*
X72285714Y-71583333D01*
X72285714Y-71821428D01*
X72238095Y-72011904D01*
X72190476Y-72107142D01*
X72142857Y-72154761D01*
X72047619Y-72202380D01*
X71952380Y-72202380D01*
X71857142Y-72154761D01*
X71809523Y-72107142D01*
X71761904Y-72011904D01*
X71714285Y-71821428D01*
X71714285Y-71583333D01*
X71761904Y-71392857D01*
X71809523Y-71297619D01*
X71857142Y-71250000D01*
X71952380Y-71202380D01*
X72666666Y-71297619D02*
X72714285Y-71250000D01*
X72809523Y-71202380D01*
X73047619Y-71202380D01*
X73142857Y-71250000D01*
X73190476Y-71297619D01*
X73238095Y-71392857D01*
X73238095Y-71488095D01*
X73190476Y-71630952D01*
X72619047Y-72202380D01*
X73238095Y-72202380D01*
%TO.C,H103*%
X35535714Y-48202380D02*
X35535714Y-47202380D01*
X35535714Y-47678571D02*
X36107142Y-47678571D01*
X36107142Y-48202380D02*
X36107142Y-47202380D01*
X37107142Y-48202380D02*
X36535714Y-48202380D01*
X36821428Y-48202380D02*
X36821428Y-47202380D01*
X36726190Y-47345238D01*
X36630952Y-47440476D01*
X36535714Y-47488095D01*
X37726190Y-47202380D02*
X37821428Y-47202380D01*
X37916666Y-47250000D01*
X37964285Y-47297619D01*
X38011904Y-47392857D01*
X38059523Y-47583333D01*
X38059523Y-47821428D01*
X38011904Y-48011904D01*
X37964285Y-48107142D01*
X37916666Y-48154761D01*
X37821428Y-48202380D01*
X37726190Y-48202380D01*
X37630952Y-48154761D01*
X37583333Y-48107142D01*
X37535714Y-48011904D01*
X37488095Y-47821428D01*
X37488095Y-47583333D01*
X37535714Y-47392857D01*
X37583333Y-47297619D01*
X37630952Y-47250000D01*
X37726190Y-47202380D01*
X38392857Y-47202380D02*
X39011904Y-47202380D01*
X38678571Y-47583333D01*
X38821428Y-47583333D01*
X38916666Y-47630952D01*
X38964285Y-47678571D01*
X39011904Y-47773809D01*
X39011904Y-48011904D01*
X38964285Y-48107142D01*
X38916666Y-48154761D01*
X38821428Y-48202380D01*
X38535714Y-48202380D01*
X38440476Y-48154761D01*
X38392857Y-48107142D01*
%TO.C,JP205*%
X64964285Y-58202380D02*
X64964285Y-58916666D01*
X64916666Y-59059523D01*
X64821428Y-59154761D01*
X64678571Y-59202380D01*
X64583333Y-59202380D01*
X65440476Y-59202380D02*
X65440476Y-58202380D01*
X65821428Y-58202380D01*
X65916666Y-58250000D01*
X65964285Y-58297619D01*
X66011904Y-58392857D01*
X66011904Y-58535714D01*
X65964285Y-58630952D01*
X65916666Y-58678571D01*
X65821428Y-58726190D01*
X65440476Y-58726190D01*
X66392857Y-58297619D02*
X66440476Y-58250000D01*
X66535714Y-58202380D01*
X66773809Y-58202380D01*
X66869047Y-58250000D01*
X66916666Y-58297619D01*
X66964285Y-58392857D01*
X66964285Y-58488095D01*
X66916666Y-58630952D01*
X66345238Y-59202380D01*
X66964285Y-59202380D01*
X67583333Y-58202380D02*
X67678571Y-58202380D01*
X67773809Y-58250000D01*
X67821428Y-58297619D01*
X67869047Y-58392857D01*
X67916666Y-58583333D01*
X67916666Y-58821428D01*
X67869047Y-59011904D01*
X67821428Y-59107142D01*
X67773809Y-59154761D01*
X67678571Y-59202380D01*
X67583333Y-59202380D01*
X67488095Y-59154761D01*
X67440476Y-59107142D01*
X67392857Y-59011904D01*
X67345238Y-58821428D01*
X67345238Y-58583333D01*
X67392857Y-58392857D01*
X67440476Y-58297619D01*
X67488095Y-58250000D01*
X67583333Y-58202380D01*
X68821428Y-58202380D02*
X68345238Y-58202380D01*
X68297619Y-58678571D01*
X68345238Y-58630952D01*
X68440476Y-58583333D01*
X68678571Y-58583333D01*
X68773809Y-58630952D01*
X68821428Y-58678571D01*
X68869047Y-58773809D01*
X68869047Y-59011904D01*
X68821428Y-59107142D01*
X68773809Y-59154761D01*
X68678571Y-59202380D01*
X68440476Y-59202380D01*
X68345238Y-59154761D01*
X68297619Y-59107142D01*
%TO.C,H102*%
X86285714Y-40152380D02*
X86285714Y-39152380D01*
X86285714Y-39628571D02*
X86857142Y-39628571D01*
X86857142Y-40152380D02*
X86857142Y-39152380D01*
X87857142Y-40152380D02*
X87285714Y-40152380D01*
X87571428Y-40152380D02*
X87571428Y-39152380D01*
X87476190Y-39295238D01*
X87380952Y-39390476D01*
X87285714Y-39438095D01*
X88476190Y-39152380D02*
X88571428Y-39152380D01*
X88666666Y-39200000D01*
X88714285Y-39247619D01*
X88761904Y-39342857D01*
X88809523Y-39533333D01*
X88809523Y-39771428D01*
X88761904Y-39961904D01*
X88714285Y-40057142D01*
X88666666Y-40104761D01*
X88571428Y-40152380D01*
X88476190Y-40152380D01*
X88380952Y-40104761D01*
X88333333Y-40057142D01*
X88285714Y-39961904D01*
X88238095Y-39771428D01*
X88238095Y-39533333D01*
X88285714Y-39342857D01*
X88333333Y-39247619D01*
X88380952Y-39200000D01*
X88476190Y-39152380D01*
X89190476Y-39247619D02*
X89238095Y-39200000D01*
X89333333Y-39152380D01*
X89571428Y-39152380D01*
X89666666Y-39200000D01*
X89714285Y-39247619D01*
X89761904Y-39342857D01*
X89761904Y-39438095D01*
X89714285Y-39580952D01*
X89142857Y-40152380D01*
X89761904Y-40152380D01*
%TO.C,JP201*%
X41214285Y-58702380D02*
X41214285Y-59416666D01*
X41166666Y-59559523D01*
X41071428Y-59654761D01*
X40928571Y-59702380D01*
X40833333Y-59702380D01*
X41690476Y-59702380D02*
X41690476Y-58702380D01*
X42071428Y-58702380D01*
X42166666Y-58750000D01*
X42214285Y-58797619D01*
X42261904Y-58892857D01*
X42261904Y-59035714D01*
X42214285Y-59130952D01*
X42166666Y-59178571D01*
X42071428Y-59226190D01*
X41690476Y-59226190D01*
X42642857Y-58797619D02*
X42690476Y-58750000D01*
X42785714Y-58702380D01*
X43023809Y-58702380D01*
X43119047Y-58750000D01*
X43166666Y-58797619D01*
X43214285Y-58892857D01*
X43214285Y-58988095D01*
X43166666Y-59130952D01*
X42595238Y-59702380D01*
X43214285Y-59702380D01*
X43833333Y-58702380D02*
X43928571Y-58702380D01*
X44023809Y-58750000D01*
X44071428Y-58797619D01*
X44119047Y-58892857D01*
X44166666Y-59083333D01*
X44166666Y-59321428D01*
X44119047Y-59511904D01*
X44071428Y-59607142D01*
X44023809Y-59654761D01*
X43928571Y-59702380D01*
X43833333Y-59702380D01*
X43738095Y-59654761D01*
X43690476Y-59607142D01*
X43642857Y-59511904D01*
X43595238Y-59321428D01*
X43595238Y-59083333D01*
X43642857Y-58892857D01*
X43690476Y-58797619D01*
X43738095Y-58750000D01*
X43833333Y-58702380D01*
X45119047Y-59702380D02*
X44547619Y-59702380D01*
X44833333Y-59702380D02*
X44833333Y-58702380D01*
X44738095Y-58845238D01*
X44642857Y-58940476D01*
X44547619Y-58988095D01*
%TO.C,J102*%
X55464285Y-43702380D02*
X55464285Y-44416666D01*
X55416666Y-44559523D01*
X55321428Y-44654761D01*
X55178571Y-44702380D01*
X55083333Y-44702380D01*
X56464285Y-44702380D02*
X55892857Y-44702380D01*
X56178571Y-44702380D02*
X56178571Y-43702380D01*
X56083333Y-43845238D01*
X55988095Y-43940476D01*
X55892857Y-43988095D01*
X57083333Y-43702380D02*
X57178571Y-43702380D01*
X57273809Y-43750000D01*
X57321428Y-43797619D01*
X57369047Y-43892857D01*
X57416666Y-44083333D01*
X57416666Y-44321428D01*
X57369047Y-44511904D01*
X57321428Y-44607142D01*
X57273809Y-44654761D01*
X57178571Y-44702380D01*
X57083333Y-44702380D01*
X56988095Y-44654761D01*
X56940476Y-44607142D01*
X56892857Y-44511904D01*
X56845238Y-44321428D01*
X56845238Y-44083333D01*
X56892857Y-43892857D01*
X56940476Y-43797619D01*
X56988095Y-43750000D01*
X57083333Y-43702380D01*
X57797619Y-43797619D02*
X57845238Y-43750000D01*
X57940476Y-43702380D01*
X58178571Y-43702380D01*
X58273809Y-43750000D01*
X58321428Y-43797619D01*
X58369047Y-43892857D01*
X58369047Y-43988095D01*
X58321428Y-44130952D01*
X57750000Y-44702380D01*
X58369047Y-44702380D01*
%TO.C,H104*%
X86285714Y-81902380D02*
X86285714Y-80902380D01*
X86285714Y-81378571D02*
X86857142Y-81378571D01*
X86857142Y-81902380D02*
X86857142Y-80902380D01*
X87857142Y-81902380D02*
X87285714Y-81902380D01*
X87571428Y-81902380D02*
X87571428Y-80902380D01*
X87476190Y-81045238D01*
X87380952Y-81140476D01*
X87285714Y-81188095D01*
X88476190Y-80902380D02*
X88571428Y-80902380D01*
X88666666Y-80950000D01*
X88714285Y-80997619D01*
X88761904Y-81092857D01*
X88809523Y-81283333D01*
X88809523Y-81521428D01*
X88761904Y-81711904D01*
X88714285Y-81807142D01*
X88666666Y-81854761D01*
X88571428Y-81902380D01*
X88476190Y-81902380D01*
X88380952Y-81854761D01*
X88333333Y-81807142D01*
X88285714Y-81711904D01*
X88238095Y-81521428D01*
X88238095Y-81283333D01*
X88285714Y-81092857D01*
X88333333Y-80997619D01*
X88380952Y-80950000D01*
X88476190Y-80902380D01*
X89666666Y-81235714D02*
X89666666Y-81902380D01*
X89428571Y-80854761D02*
X89190476Y-81569047D01*
X89809523Y-81569047D01*
%TO.C,R201*%
X71130952Y-85614880D02*
X70797619Y-85138690D01*
X70559523Y-85614880D02*
X70559523Y-84614880D01*
X70940476Y-84614880D01*
X71035714Y-84662500D01*
X71083333Y-84710119D01*
X71130952Y-84805357D01*
X71130952Y-84948214D01*
X71083333Y-85043452D01*
X71035714Y-85091071D01*
X70940476Y-85138690D01*
X70559523Y-85138690D01*
X71511904Y-84710119D02*
X71559523Y-84662500D01*
X71654761Y-84614880D01*
X71892857Y-84614880D01*
X71988095Y-84662500D01*
X72035714Y-84710119D01*
X72083333Y-84805357D01*
X72083333Y-84900595D01*
X72035714Y-85043452D01*
X71464285Y-85614880D01*
X72083333Y-85614880D01*
X72702380Y-84614880D02*
X72797619Y-84614880D01*
X72892857Y-84662500D01*
X72940476Y-84710119D01*
X72988095Y-84805357D01*
X73035714Y-84995833D01*
X73035714Y-85233928D01*
X72988095Y-85424404D01*
X72940476Y-85519642D01*
X72892857Y-85567261D01*
X72797619Y-85614880D01*
X72702380Y-85614880D01*
X72607142Y-85567261D01*
X72559523Y-85519642D01*
X72511904Y-85424404D01*
X72464285Y-85233928D01*
X72464285Y-84995833D01*
X72511904Y-84805357D01*
X72559523Y-84710119D01*
X72607142Y-84662500D01*
X72702380Y-84614880D01*
X73988095Y-85614880D02*
X73416666Y-85614880D01*
X73702380Y-85614880D02*
X73702380Y-84614880D01*
X73607142Y-84757738D01*
X73511904Y-84852976D01*
X73416666Y-84900595D01*
%TO.C,C203*%
X70180952Y-64357142D02*
X70133333Y-64404761D01*
X69990476Y-64452380D01*
X69895238Y-64452380D01*
X69752380Y-64404761D01*
X69657142Y-64309523D01*
X69609523Y-64214285D01*
X69561904Y-64023809D01*
X69561904Y-63880952D01*
X69609523Y-63690476D01*
X69657142Y-63595238D01*
X69752380Y-63500000D01*
X69895238Y-63452380D01*
X69990476Y-63452380D01*
X70133333Y-63500000D01*
X70180952Y-63547619D01*
X70561904Y-63547619D02*
X70609523Y-63500000D01*
X70704761Y-63452380D01*
X70942857Y-63452380D01*
X71038095Y-63500000D01*
X71085714Y-63547619D01*
X71133333Y-63642857D01*
X71133333Y-63738095D01*
X71085714Y-63880952D01*
X70514285Y-64452380D01*
X71133333Y-64452380D01*
X71752380Y-63452380D02*
X71847619Y-63452380D01*
X71942857Y-63500000D01*
X71990476Y-63547619D01*
X72038095Y-63642857D01*
X72085714Y-63833333D01*
X72085714Y-64071428D01*
X72038095Y-64261904D01*
X71990476Y-64357142D01*
X71942857Y-64404761D01*
X71847619Y-64452380D01*
X71752380Y-64452380D01*
X71657142Y-64404761D01*
X71609523Y-64357142D01*
X71561904Y-64261904D01*
X71514285Y-64071428D01*
X71514285Y-63833333D01*
X71561904Y-63642857D01*
X71609523Y-63547619D01*
X71657142Y-63500000D01*
X71752380Y-63452380D01*
X72419047Y-63452380D02*
X73038095Y-63452380D01*
X72704761Y-63833333D01*
X72847619Y-63833333D01*
X72942857Y-63880952D01*
X72990476Y-63928571D01*
X73038095Y-64023809D01*
X73038095Y-64261904D01*
X72990476Y-64357142D01*
X72942857Y-64404761D01*
X72847619Y-64452380D01*
X72561904Y-64452380D01*
X72466666Y-64404761D01*
X72419047Y-64357142D01*
%TO.C,C211*%
X59130952Y-62857142D02*
X59083333Y-62904761D01*
X58940476Y-62952380D01*
X58845238Y-62952380D01*
X58702380Y-62904761D01*
X58607142Y-62809523D01*
X58559523Y-62714285D01*
X58511904Y-62523809D01*
X58511904Y-62380952D01*
X58559523Y-62190476D01*
X58607142Y-62095238D01*
X58702380Y-62000000D01*
X58845238Y-61952380D01*
X58940476Y-61952380D01*
X59083333Y-62000000D01*
X59130952Y-62047619D01*
X59511904Y-62047619D02*
X59559523Y-62000000D01*
X59654761Y-61952380D01*
X59892857Y-61952380D01*
X59988095Y-62000000D01*
X60035714Y-62047619D01*
X60083333Y-62142857D01*
X60083333Y-62238095D01*
X60035714Y-62380952D01*
X59464285Y-62952380D01*
X60083333Y-62952380D01*
X61035714Y-62952380D02*
X60464285Y-62952380D01*
X60750000Y-62952380D02*
X60750000Y-61952380D01*
X60654761Y-62095238D01*
X60559523Y-62190476D01*
X60464285Y-62238095D01*
X61988095Y-62952380D02*
X61416666Y-62952380D01*
X61702380Y-62952380D02*
X61702380Y-61952380D01*
X61607142Y-62095238D01*
X61511904Y-62190476D01*
X61416666Y-62238095D01*
%TO.C,C206*%
X53880952Y-70357142D02*
X53833333Y-70404761D01*
X53690476Y-70452380D01*
X53595238Y-70452380D01*
X53452380Y-70404761D01*
X53357142Y-70309523D01*
X53309523Y-70214285D01*
X53261904Y-70023809D01*
X53261904Y-69880952D01*
X53309523Y-69690476D01*
X53357142Y-69595238D01*
X53452380Y-69500000D01*
X53595238Y-69452380D01*
X53690476Y-69452380D01*
X53833333Y-69500000D01*
X53880952Y-69547619D01*
X54261904Y-69547619D02*
X54309523Y-69500000D01*
X54404761Y-69452380D01*
X54642857Y-69452380D01*
X54738095Y-69500000D01*
X54785714Y-69547619D01*
X54833333Y-69642857D01*
X54833333Y-69738095D01*
X54785714Y-69880952D01*
X54214285Y-70452380D01*
X54833333Y-70452380D01*
X55452380Y-69452380D02*
X55547619Y-69452380D01*
X55642857Y-69500000D01*
X55690476Y-69547619D01*
X55738095Y-69642857D01*
X55785714Y-69833333D01*
X55785714Y-70071428D01*
X55738095Y-70261904D01*
X55690476Y-70357142D01*
X55642857Y-70404761D01*
X55547619Y-70452380D01*
X55452380Y-70452380D01*
X55357142Y-70404761D01*
X55309523Y-70357142D01*
X55261904Y-70261904D01*
X55214285Y-70071428D01*
X55214285Y-69833333D01*
X55261904Y-69642857D01*
X55309523Y-69547619D01*
X55357142Y-69500000D01*
X55452380Y-69452380D01*
X56642857Y-69452380D02*
X56452380Y-69452380D01*
X56357142Y-69500000D01*
X56309523Y-69547619D01*
X56214285Y-69690476D01*
X56166666Y-69880952D01*
X56166666Y-70261904D01*
X56214285Y-70357142D01*
X56261904Y-70404761D01*
X56357142Y-70452380D01*
X56547619Y-70452380D01*
X56642857Y-70404761D01*
X56690476Y-70357142D01*
X56738095Y-70261904D01*
X56738095Y-70023809D01*
X56690476Y-69928571D01*
X56642857Y-69880952D01*
X56547619Y-69833333D01*
X56357142Y-69833333D01*
X56261904Y-69880952D01*
X56214285Y-69928571D01*
X56166666Y-70023809D01*
%TO.C,J101*%
X74924285Y-44427380D02*
X74924285Y-45141666D01*
X74876666Y-45284523D01*
X74781428Y-45379761D01*
X74638571Y-45427380D01*
X74543333Y-45427380D01*
X75924285Y-45427380D02*
X75352857Y-45427380D01*
X75638571Y-45427380D02*
X75638571Y-44427380D01*
X75543333Y-44570238D01*
X75448095Y-44665476D01*
X75352857Y-44713095D01*
X76543333Y-44427380D02*
X76638571Y-44427380D01*
X76733809Y-44475000D01*
X76781428Y-44522619D01*
X76829047Y-44617857D01*
X76876666Y-44808333D01*
X76876666Y-45046428D01*
X76829047Y-45236904D01*
X76781428Y-45332142D01*
X76733809Y-45379761D01*
X76638571Y-45427380D01*
X76543333Y-45427380D01*
X76448095Y-45379761D01*
X76400476Y-45332142D01*
X76352857Y-45236904D01*
X76305238Y-45046428D01*
X76305238Y-44808333D01*
X76352857Y-44617857D01*
X76400476Y-44522619D01*
X76448095Y-44475000D01*
X76543333Y-44427380D01*
X77829047Y-45427380D02*
X77257619Y-45427380D01*
X77543333Y-45427380D02*
X77543333Y-44427380D01*
X77448095Y-44570238D01*
X77352857Y-44665476D01*
X77257619Y-44713095D01*
%TO.C,C210*%
X75130952Y-75857142D02*
X75083333Y-75904761D01*
X74940476Y-75952380D01*
X74845238Y-75952380D01*
X74702380Y-75904761D01*
X74607142Y-75809523D01*
X74559523Y-75714285D01*
X74511904Y-75523809D01*
X74511904Y-75380952D01*
X74559523Y-75190476D01*
X74607142Y-75095238D01*
X74702380Y-75000000D01*
X74845238Y-74952380D01*
X74940476Y-74952380D01*
X75083333Y-75000000D01*
X75130952Y-75047619D01*
X75511904Y-75047619D02*
X75559523Y-75000000D01*
X75654761Y-74952380D01*
X75892857Y-74952380D01*
X75988095Y-75000000D01*
X76035714Y-75047619D01*
X76083333Y-75142857D01*
X76083333Y-75238095D01*
X76035714Y-75380952D01*
X75464285Y-75952380D01*
X76083333Y-75952380D01*
X77035714Y-75952380D02*
X76464285Y-75952380D01*
X76750000Y-75952380D02*
X76750000Y-74952380D01*
X76654761Y-75095238D01*
X76559523Y-75190476D01*
X76464285Y-75238095D01*
X77654761Y-74952380D02*
X77750000Y-74952380D01*
X77845238Y-75000000D01*
X77892857Y-75047619D01*
X77940476Y-75142857D01*
X77988095Y-75333333D01*
X77988095Y-75571428D01*
X77940476Y-75761904D01*
X77892857Y-75857142D01*
X77845238Y-75904761D01*
X77750000Y-75952380D01*
X77654761Y-75952380D01*
X77559523Y-75904761D01*
X77511904Y-75857142D01*
X77464285Y-75761904D01*
X77416666Y-75571428D01*
X77416666Y-75333333D01*
X77464285Y-75142857D01*
X77511904Y-75047619D01*
X77559523Y-75000000D01*
X77654761Y-74952380D01*
%TO.C,R206*%
X61630952Y-49452380D02*
X61297619Y-48976190D01*
X61059523Y-49452380D02*
X61059523Y-48452380D01*
X61440476Y-48452380D01*
X61535714Y-48500000D01*
X61583333Y-48547619D01*
X61630952Y-48642857D01*
X61630952Y-48785714D01*
X61583333Y-48880952D01*
X61535714Y-48928571D01*
X61440476Y-48976190D01*
X61059523Y-48976190D01*
X62011904Y-48547619D02*
X62059523Y-48500000D01*
X62154761Y-48452380D01*
X62392857Y-48452380D01*
X62488095Y-48500000D01*
X62535714Y-48547619D01*
X62583333Y-48642857D01*
X62583333Y-48738095D01*
X62535714Y-48880952D01*
X61964285Y-49452380D01*
X62583333Y-49452380D01*
X63202380Y-48452380D02*
X63297619Y-48452380D01*
X63392857Y-48500000D01*
X63440476Y-48547619D01*
X63488095Y-48642857D01*
X63535714Y-48833333D01*
X63535714Y-49071428D01*
X63488095Y-49261904D01*
X63440476Y-49357142D01*
X63392857Y-49404761D01*
X63297619Y-49452380D01*
X63202380Y-49452380D01*
X63107142Y-49404761D01*
X63059523Y-49357142D01*
X63011904Y-49261904D01*
X62964285Y-49071428D01*
X62964285Y-48833333D01*
X63011904Y-48642857D01*
X63059523Y-48547619D01*
X63107142Y-48500000D01*
X63202380Y-48452380D01*
X64392857Y-48452380D02*
X64202380Y-48452380D01*
X64107142Y-48500000D01*
X64059523Y-48547619D01*
X63964285Y-48690476D01*
X63916666Y-48880952D01*
X63916666Y-49261904D01*
X63964285Y-49357142D01*
X64011904Y-49404761D01*
X64107142Y-49452380D01*
X64297619Y-49452380D01*
X64392857Y-49404761D01*
X64440476Y-49357142D01*
X64488095Y-49261904D01*
X64488095Y-49023809D01*
X64440476Y-48928571D01*
X64392857Y-48880952D01*
X64297619Y-48833333D01*
X64107142Y-48833333D01*
X64011904Y-48880952D01*
X63964285Y-48928571D01*
X63916666Y-49023809D01*
%TO.C,U201*%
X55035714Y-65202380D02*
X55035714Y-66011904D01*
X55083333Y-66107142D01*
X55130952Y-66154761D01*
X55226190Y-66202380D01*
X55416666Y-66202380D01*
X55511904Y-66154761D01*
X55559523Y-66107142D01*
X55607142Y-66011904D01*
X55607142Y-65202380D01*
X56035714Y-65297619D02*
X56083333Y-65250000D01*
X56178571Y-65202380D01*
X56416666Y-65202380D01*
X56511904Y-65250000D01*
X56559523Y-65297619D01*
X56607142Y-65392857D01*
X56607142Y-65488095D01*
X56559523Y-65630952D01*
X55988095Y-66202380D01*
X56607142Y-66202380D01*
X57226190Y-65202380D02*
X57321428Y-65202380D01*
X57416666Y-65250000D01*
X57464285Y-65297619D01*
X57511904Y-65392857D01*
X57559523Y-65583333D01*
X57559523Y-65821428D01*
X57511904Y-66011904D01*
X57464285Y-66107142D01*
X57416666Y-66154761D01*
X57321428Y-66202380D01*
X57226190Y-66202380D01*
X57130952Y-66154761D01*
X57083333Y-66107142D01*
X57035714Y-66011904D01*
X56988095Y-65821428D01*
X56988095Y-65583333D01*
X57035714Y-65392857D01*
X57083333Y-65297619D01*
X57130952Y-65250000D01*
X57226190Y-65202380D01*
X58511904Y-66202380D02*
X57940476Y-66202380D01*
X58226190Y-66202380D02*
X58226190Y-65202380D01*
X58130952Y-65345238D01*
X58035714Y-65440476D01*
X57940476Y-65488095D01*
%TO.C,C207*%
X63130952Y-62357142D02*
X63083333Y-62404761D01*
X62940476Y-62452380D01*
X62845238Y-62452380D01*
X62702380Y-62404761D01*
X62607142Y-62309523D01*
X62559523Y-62214285D01*
X62511904Y-62023809D01*
X62511904Y-61880952D01*
X62559523Y-61690476D01*
X62607142Y-61595238D01*
X62702380Y-61500000D01*
X62845238Y-61452380D01*
X62940476Y-61452380D01*
X63083333Y-61500000D01*
X63130952Y-61547619D01*
X63511904Y-61547619D02*
X63559523Y-61500000D01*
X63654761Y-61452380D01*
X63892857Y-61452380D01*
X63988095Y-61500000D01*
X64035714Y-61547619D01*
X64083333Y-61642857D01*
X64083333Y-61738095D01*
X64035714Y-61880952D01*
X63464285Y-62452380D01*
X64083333Y-62452380D01*
X64702380Y-61452380D02*
X64797619Y-61452380D01*
X64892857Y-61500000D01*
X64940476Y-61547619D01*
X64988095Y-61642857D01*
X65035714Y-61833333D01*
X65035714Y-62071428D01*
X64988095Y-62261904D01*
X64940476Y-62357142D01*
X64892857Y-62404761D01*
X64797619Y-62452380D01*
X64702380Y-62452380D01*
X64607142Y-62404761D01*
X64559523Y-62357142D01*
X64511904Y-62261904D01*
X64464285Y-62071428D01*
X64464285Y-61833333D01*
X64511904Y-61642857D01*
X64559523Y-61547619D01*
X64607142Y-61500000D01*
X64702380Y-61452380D01*
X65369047Y-61452380D02*
X66035714Y-61452380D01*
X65607142Y-62452380D01*
%TO.C,C209*%
X75130952Y-85557142D02*
X75083333Y-85604761D01*
X74940476Y-85652380D01*
X74845238Y-85652380D01*
X74702380Y-85604761D01*
X74607142Y-85509523D01*
X74559523Y-85414285D01*
X74511904Y-85223809D01*
X74511904Y-85080952D01*
X74559523Y-84890476D01*
X74607142Y-84795238D01*
X74702380Y-84700000D01*
X74845238Y-84652380D01*
X74940476Y-84652380D01*
X75083333Y-84700000D01*
X75130952Y-84747619D01*
X75511904Y-84747619D02*
X75559523Y-84700000D01*
X75654761Y-84652380D01*
X75892857Y-84652380D01*
X75988095Y-84700000D01*
X76035714Y-84747619D01*
X76083333Y-84842857D01*
X76083333Y-84938095D01*
X76035714Y-85080952D01*
X75464285Y-85652380D01*
X76083333Y-85652380D01*
X76702380Y-84652380D02*
X76797619Y-84652380D01*
X76892857Y-84700000D01*
X76940476Y-84747619D01*
X76988095Y-84842857D01*
X77035714Y-85033333D01*
X77035714Y-85271428D01*
X76988095Y-85461904D01*
X76940476Y-85557142D01*
X76892857Y-85604761D01*
X76797619Y-85652380D01*
X76702380Y-85652380D01*
X76607142Y-85604761D01*
X76559523Y-85557142D01*
X76511904Y-85461904D01*
X76464285Y-85271428D01*
X76464285Y-85033333D01*
X76511904Y-84842857D01*
X76559523Y-84747619D01*
X76607142Y-84700000D01*
X76702380Y-84652380D01*
X77511904Y-85652380D02*
X77702380Y-85652380D01*
X77797619Y-85604761D01*
X77845238Y-85557142D01*
X77940476Y-85414285D01*
X77988095Y-85223809D01*
X77988095Y-84842857D01*
X77940476Y-84747619D01*
X77892857Y-84700000D01*
X77797619Y-84652380D01*
X77607142Y-84652380D01*
X77511904Y-84700000D01*
X77464285Y-84747619D01*
X77416666Y-84842857D01*
X77416666Y-85080952D01*
X77464285Y-85176190D01*
X77511904Y-85223809D01*
X77607142Y-85271428D01*
X77797619Y-85271428D01*
X77892857Y-85223809D01*
X77940476Y-85176190D01*
X77988095Y-85080952D01*
D11*
%TO.C,R301*%
X78772936Y-65515000D02*
X79227064Y-65515000D01*
X78772936Y-66985000D02*
X79227064Y-66985000D01*
%TO.C,R302*%
X73515000Y-60227064D02*
X73515000Y-59772936D01*
X74985000Y-60227064D02*
X74985000Y-59772936D01*
%TO.C,R203*%
X46015000Y-71977064D02*
X46015000Y-71522936D01*
X47485000Y-71977064D02*
X47485000Y-71522936D01*
%TO.C,JP203*%
X48670000Y-71975000D02*
X48670000Y-70645000D01*
X48670000Y-73245000D02*
X51330000Y-73245000D01*
X48670000Y-78385000D02*
X51330000Y-78385000D01*
X51330000Y-73245000D02*
X51330000Y-78385000D01*
X48670000Y-70645000D02*
X50000000Y-70645000D01*
X48670000Y-73245000D02*
X48670000Y-78385000D01*
%TO.C,R204*%
X47485000Y-76977064D02*
X47485000Y-76522936D01*
X46015000Y-76977064D02*
X46015000Y-76522936D01*
%TO.C,R303*%
X73515000Y-56727064D02*
X73515000Y-56272936D01*
X74985000Y-56727064D02*
X74985000Y-56272936D01*
%TO.C,JP202*%
X47995000Y-62420000D02*
X53135000Y-62420000D01*
X47995000Y-65080000D02*
X53135000Y-65080000D01*
X45395000Y-65080000D02*
X45395000Y-63750000D01*
X46725000Y-65080000D02*
X45395000Y-65080000D01*
X47995000Y-65080000D02*
X47995000Y-62420000D01*
X53135000Y-65080000D02*
X53135000Y-62420000D01*
%TO.C,JP206*%
X65650000Y-55200000D02*
X60510000Y-55200000D01*
X65650000Y-52540000D02*
X60510000Y-52540000D01*
X66920000Y-52540000D02*
X68250000Y-52540000D01*
X60510000Y-52540000D02*
X60510000Y-55200000D01*
X65650000Y-52540000D02*
X65650000Y-55200000D01*
X68250000Y-52540000D02*
X68250000Y-53870000D01*
%TO.C,R205*%
X56227064Y-50015000D02*
X55772936Y-50015000D01*
X56227064Y-51485000D02*
X55772936Y-51485000D01*
%TO.C,C201*%
X59261252Y-77485000D02*
X58738748Y-77485000D01*
X59261252Y-76015000D02*
X58738748Y-76015000D01*
%TO.C,U301*%
X79110000Y-57700000D02*
X79110000Y-59200000D01*
X75890000Y-56200000D02*
X75890000Y-59200000D01*
%TO.C,R202*%
X74235000Y-78139564D02*
X74235000Y-77685436D01*
X72765000Y-78139564D02*
X72765000Y-77685436D01*
%TO.C,C208*%
X66488748Y-67485000D02*
X67011252Y-67485000D01*
X66488748Y-66015000D02*
X67011252Y-66015000D01*
%TO.C,C205*%
X66488748Y-68515000D02*
X67011252Y-68515000D01*
X66488748Y-69985000D02*
X67011252Y-69985000D01*
%TO.C,C302*%
X78288748Y-64435000D02*
X79711252Y-64435000D01*
X78288748Y-62615000D02*
X79711252Y-62615000D01*
%TO.C,C204*%
X59261252Y-75235000D02*
X58738748Y-75235000D01*
X59261252Y-73765000D02*
X58738748Y-73765000D01*
%TO.C,C303*%
X81090000Y-58563748D02*
X81090000Y-59986252D01*
X82910000Y-58563748D02*
X82910000Y-59986252D01*
%TO.C,J103*%
X81305000Y-82942500D02*
X81305000Y-75262500D01*
X81305000Y-82942500D02*
X78645000Y-82942500D01*
X78645000Y-82942500D02*
X78645000Y-75262500D01*
X81305000Y-84212500D02*
X81305000Y-85542500D01*
X81305000Y-75262500D02*
X78645000Y-75262500D01*
X81305000Y-85542500D02*
X79975000Y-85542500D01*
%TO.C,C301*%
X79288748Y-54435000D02*
X80711252Y-54435000D01*
X79288748Y-52615000D02*
X80711252Y-52615000D01*
%TO.C,JP204*%
X53140000Y-55200000D02*
X58280000Y-55200000D01*
X50540000Y-55200000D02*
X50540000Y-53870000D01*
X51870000Y-55200000D02*
X50540000Y-55200000D01*
X58280000Y-55200000D02*
X58280000Y-52540000D01*
X53140000Y-55200000D02*
X53140000Y-52540000D01*
X53140000Y-52540000D02*
X58280000Y-52540000D01*
%TO.C,C202*%
X66738748Y-72485000D02*
X67261252Y-72485000D01*
X66738748Y-71015000D02*
X67261252Y-71015000D01*
%TO.C,JP205*%
X64030000Y-59950000D02*
X64030000Y-57290000D01*
X58890000Y-59950000D02*
X64030000Y-59950000D01*
X56290000Y-59950000D02*
X56290000Y-58620000D01*
X58890000Y-59950000D02*
X58890000Y-57290000D01*
X58890000Y-57290000D02*
X64030000Y-57290000D01*
X57620000Y-59950000D02*
X56290000Y-59950000D01*
%TO.C,JP201*%
X45395000Y-60450000D02*
X45395000Y-59120000D01*
X46725000Y-60450000D02*
X45395000Y-60450000D01*
X47995000Y-60450000D02*
X47995000Y-57790000D01*
X53135000Y-60450000D02*
X53135000Y-57790000D01*
X47995000Y-60450000D02*
X53135000Y-60450000D01*
X47995000Y-57790000D02*
X53135000Y-57790000D01*
%TO.C,J102*%
X46480000Y-42920000D02*
X54160000Y-42920000D01*
X46480000Y-45580000D02*
X46480000Y-42920000D01*
X43880000Y-45580000D02*
X43880000Y-44250000D01*
X46480000Y-45580000D02*
X54160000Y-45580000D01*
X54160000Y-45580000D02*
X54160000Y-42920000D01*
X45210000Y-45580000D02*
X43880000Y-45580000D01*
%TO.C,R201*%
X74235000Y-82435436D02*
X74235000Y-82889564D01*
X72765000Y-82435436D02*
X72765000Y-82889564D01*
%TO.C,C203*%
X66488748Y-63265000D02*
X67011252Y-63265000D01*
X66488748Y-64735000D02*
X67011252Y-64735000D01*
%TO.C,C211*%
X60511252Y-63765000D02*
X59988748Y-63765000D01*
X60511252Y-65235000D02*
X59988748Y-65235000D01*
%TO.C,C206*%
X56485000Y-71988748D02*
X56485000Y-72511252D01*
X55015000Y-71988748D02*
X55015000Y-72511252D01*
%TO.C,J101*%
X74630000Y-49080000D02*
X74630000Y-47750000D01*
X75960000Y-49080000D02*
X74630000Y-49080000D01*
X77230000Y-46420000D02*
X79830000Y-46420000D01*
X77230000Y-49080000D02*
X77230000Y-46420000D01*
X77230000Y-49080000D02*
X79830000Y-49080000D01*
X79830000Y-49080000D02*
X79830000Y-46420000D01*
%TO.C,C210*%
X75515000Y-78173752D02*
X75515000Y-77651248D01*
X76985000Y-78173752D02*
X76985000Y-77651248D01*
%TO.C,R206*%
X62522936Y-51485000D02*
X62977064Y-51485000D01*
X62522936Y-50015000D02*
X62977064Y-50015000D01*
%TO.C,U201*%
X57770000Y-67735000D02*
X57770000Y-67010000D01*
X62990000Y-67735000D02*
X62990000Y-67010000D01*
X62990000Y-71505000D02*
X62990000Y-72230000D01*
X57770000Y-67010000D02*
X58495000Y-67010000D01*
X57770000Y-71505000D02*
X57770000Y-72230000D01*
X62990000Y-67010000D02*
X62265000Y-67010000D01*
X62990000Y-72230000D02*
X62265000Y-72230000D01*
%TO.C,C207*%
X62765000Y-64761252D02*
X62765000Y-64238748D01*
X64235000Y-64761252D02*
X64235000Y-64238748D01*
%TO.C,C209*%
X76985000Y-82401248D02*
X76985000Y-82923752D01*
X75515000Y-82401248D02*
X75515000Y-82923752D01*
%TD*%
M02*
