%TF.GenerationSoftware,KiCad,Pcbnew,(6.0.7)*%
%TF.CreationDate,2022-09-01T00:20:10+02:00*%
%TF.ProjectId,ES9033_prototype,45533930-3333-45f7-9072-6f746f747970,rev?*%
%TF.SameCoordinates,Original*%
%TF.FileFunction,Copper,L1,Top*%
%TF.FilePolarity,Positive*%
%FSLAX46Y46*%
G04 Gerber Fmt 4.6, Leading zero omitted, Abs format (unit mm)*
G04 Created by KiCad (PCBNEW (6.0.7)) date 2022-09-01 00:20:10*
%MOMM*%
%LPD*%
G01*
G04 APERTURE LIST*
G04 Aperture macros list*
%AMRoundRect*
0 Rectangle with rounded corners*
0 $1 Rounding radius*
0 $2 $3 $4 $5 $6 $7 $8 $9 X,Y pos of 4 corners*
0 Add a 4 corners polygon primitive as box body*
4,1,4,$2,$3,$4,$5,$6,$7,$8,$9,$2,$3,0*
0 Add four circle primitives for the rounded corners*
1,1,$1+$1,$2,$3*
1,1,$1+$1,$4,$5*
1,1,$1+$1,$6,$7*
1,1,$1+$1,$8,$9*
0 Add four rect primitives between the rounded corners*
20,1,$1+$1,$2,$3,$4,$5,0*
20,1,$1+$1,$4,$5,$6,$7,0*
20,1,$1+$1,$6,$7,$8,$9,0*
20,1,$1+$1,$8,$9,$2,$3,0*%
G04 Aperture macros list end*
%TA.AperFunction,SMDPad,CuDef*%
%ADD10RoundRect,0.250000X-0.262500X-0.450000X0.262500X-0.450000X0.262500X0.450000X-0.262500X0.450000X0*%
%TD*%
%TA.AperFunction,SMDPad,CuDef*%
%ADD11RoundRect,0.250000X0.450000X-0.262500X0.450000X0.262500X-0.450000X0.262500X-0.450000X-0.262500X0*%
%TD*%
%TA.AperFunction,ComponentPad*%
%ADD12R,1.700000X1.700000*%
%TD*%
%TA.AperFunction,ComponentPad*%
%ADD13O,1.700000X1.700000*%
%TD*%
%TA.AperFunction,SMDPad,CuDef*%
%ADD14C,0.500000*%
%TD*%
%TA.AperFunction,SMDPad,CuDef*%
%ADD15RoundRect,0.250000X0.262500X0.450000X-0.262500X0.450000X-0.262500X-0.450000X0.262500X-0.450000X0*%
%TD*%
%TA.AperFunction,SMDPad,CuDef*%
%ADD16RoundRect,0.250000X0.250000X0.475000X-0.250000X0.475000X-0.250000X-0.475000X0.250000X-0.475000X0*%
%TD*%
%TA.AperFunction,SMDPad,CuDef*%
%ADD17RoundRect,0.062500X-0.062500X0.350000X-0.062500X-0.350000X0.062500X-0.350000X0.062500X0.350000X0*%
%TD*%
%TA.AperFunction,SMDPad,CuDef*%
%ADD18R,2.500000X1.700000*%
%TD*%
%TA.AperFunction,SMDPad,CuDef*%
%ADD19RoundRect,0.250000X-0.250000X-0.475000X0.250000X-0.475000X0.250000X0.475000X-0.250000X0.475000X0*%
%TD*%
%TA.AperFunction,SMDPad,CuDef*%
%ADD20RoundRect,0.250000X-0.325000X-0.650000X0.325000X-0.650000X0.325000X0.650000X-0.325000X0.650000X0*%
%TD*%
%TA.AperFunction,SMDPad,CuDef*%
%ADD21RoundRect,0.173913X-0.226087X0.401087X-0.226087X-0.401087X0.226087X-0.401087X0.226087X0.401087X0*%
%TD*%
%TA.AperFunction,ComponentPad*%
%ADD22C,5.600000*%
%TD*%
%TA.AperFunction,SMDPad,CuDef*%
%ADD23RoundRect,0.250000X-0.450000X0.262500X-0.450000X-0.262500X0.450000X-0.262500X0.450000X0.262500X0*%
%TD*%
%TA.AperFunction,SMDPad,CuDef*%
%ADD24RoundRect,0.250000X-0.475000X0.250000X-0.475000X-0.250000X0.475000X-0.250000X0.475000X0.250000X0*%
%TD*%
%TA.AperFunction,SMDPad,CuDef*%
%ADD25RoundRect,0.250000X0.475000X-0.250000X0.475000X0.250000X-0.475000X0.250000X-0.475000X-0.250000X0*%
%TD*%
%TA.AperFunction,SMDPad,CuDef*%
%ADD26RoundRect,0.062500X0.062500X-0.337500X0.062500X0.337500X-0.062500X0.337500X-0.062500X-0.337500X0*%
%TD*%
%TA.AperFunction,SMDPad,CuDef*%
%ADD27RoundRect,0.062500X0.337500X-0.062500X0.337500X0.062500X-0.337500X0.062500X-0.337500X-0.062500X0*%
%TD*%
%TA.AperFunction,SMDPad,CuDef*%
%ADD28R,3.350000X3.350000*%
%TD*%
%TA.AperFunction,ViaPad*%
%ADD29C,0.800000*%
%TD*%
%TA.AperFunction,ViaPad*%
%ADD30C,0.600000*%
%TD*%
%TA.AperFunction,Conductor*%
%ADD31C,0.600000*%
%TD*%
%TA.AperFunction,Conductor*%
%ADD32C,0.250000*%
%TD*%
%TA.AperFunction,Conductor*%
%ADD33C,0.400000*%
%TD*%
G04 APERTURE END LIST*
%TO.C,NT203*%
G36*
X53080000Y-48000000D02*
G01*
X52580000Y-48000000D01*
X52580000Y-47000000D01*
X53080000Y-47000000D01*
X53080000Y-48000000D01*
G37*
%TO.C,NT201*%
G36*
X45510000Y-48000000D02*
G01*
X45010000Y-48000000D01*
X45010000Y-47000000D01*
X45510000Y-47000000D01*
X45510000Y-48000000D01*
G37*
%TO.C,NT202*%
G36*
X48010000Y-48000000D02*
G01*
X47510000Y-48000000D01*
X47510000Y-47000000D01*
X48010000Y-47000000D01*
X48010000Y-48000000D01*
G37*
%TO.C,NT204*%
G36*
X50510000Y-48000000D02*
G01*
X50010000Y-48000000D01*
X50010000Y-47000000D01*
X50510000Y-47000000D01*
X50510000Y-48000000D01*
G37*
%TD*%
D10*
%TO.P,R301,1*%
%TO.N,Net-(C302-Pad1)*%
X78087500Y-66250000D03*
%TO.P,R301,2*%
%TO.N,Net-(C302-Pad2)*%
X79912500Y-66250000D03*
%TD*%
D11*
%TO.P,R302,1*%
%TO.N,+3V3*%
X74250000Y-60912500D03*
%TO.P,R302,2*%
%TO.N,Net-(R302-Pad2)*%
X74250000Y-59087500D03*
%TD*%
%TO.P,R203,1*%
%TO.N,Net-(JP203-Pad1)*%
X46750000Y-72662500D03*
%TO.P,R203,2*%
%TO.N,+3V3*%
X46750000Y-70837500D03*
%TD*%
D12*
%TO.P,JP203,1,A*%
%TO.N,Net-(JP203-Pad1)*%
X50000000Y-71975000D03*
D13*
%TO.P,JP203,2,C*%
%TO.N,/DAC/MODE*%
X50000000Y-74515000D03*
%TO.P,JP203,3,B*%
%TO.N,Net-(JP203-Pad3)*%
X50000000Y-77055000D03*
%TD*%
D11*
%TO.P,R204,1*%
%TO.N,Net-(JP203-Pad3)*%
X46750000Y-77662500D03*
%TO.P,R204,2*%
%TO.N,GND*%
X46750000Y-75837500D03*
%TD*%
%TO.P,R303,1*%
%TO.N,Net-(R302-Pad2)*%
X74250000Y-57412500D03*
%TO.P,R303,2*%
%TO.N,GND*%
X74250000Y-55587500D03*
%TD*%
D12*
%TO.P,JP202,1,A*%
%TO.N,+3V3*%
X46725000Y-63750000D03*
D13*
%TO.P,JP202,2,C*%
%TO.N,/DAC/HW0*%
X49265000Y-63750000D03*
%TO.P,JP202,3,B*%
%TO.N,GND*%
X51805000Y-63750000D03*
%TD*%
D12*
%TO.P,JP206,1,A*%
%TO.N,GND*%
X66920000Y-53870000D03*
D13*
%TO.P,JP206,2,C*%
%TO.N,Net-(JP205-Pad3)*%
X64380000Y-53870000D03*
%TO.P,JP206,3,B*%
%TO.N,Net-(JP206-Pad3)*%
X61840000Y-53870000D03*
%TD*%
D14*
%TO.P,NT203,1,1*%
%TO.N,/DAC/ADDR1*%
X52830000Y-47000000D03*
%TO.P,NT203,2,2*%
%TO.N,/DAC/HW2*%
X52830000Y-48000000D03*
%TD*%
D15*
%TO.P,R205,1*%
%TO.N,Net-(JP204-Pad3)*%
X56912500Y-50750000D03*
%TO.P,R205,2*%
%TO.N,+3V3*%
X55087500Y-50750000D03*
%TD*%
D16*
%TO.P,C201,1*%
%TO.N,+3V3*%
X59950000Y-76750000D03*
%TO.P,C201,2*%
%TO.N,GND*%
X58050000Y-76750000D03*
%TD*%
D17*
%TO.P,U301,1,IN*%
%TO.N,+5V*%
X78500000Y-56237500D03*
%TO.P,U301,2,IN*%
X78000000Y-56237500D03*
%TO.P,U301,3,EN/UV*%
X77500000Y-56237500D03*
%TO.P,U301,4,PG*%
%TO.N,unconnected-(U301-Pad4)*%
X77000000Y-56237500D03*
%TO.P,U301,5,ILIM*%
%TO.N,GND*%
X76500000Y-56237500D03*
%TO.P,U301,6,PGFB*%
%TO.N,Net-(R302-Pad2)*%
X76500000Y-59162500D03*
%TO.P,U301,7,SET*%
%TO.N,Net-(C302-Pad1)*%
X77000000Y-59162500D03*
%TO.P,U301,8,GND*%
%TO.N,GND*%
X77500000Y-59162500D03*
%TO.P,U301,9,OUTS*%
%TO.N,Net-(C303-Pad4)*%
X78000000Y-59162500D03*
%TO.P,U301,10,OUT*%
%TO.N,+3V3*%
X78500000Y-59162500D03*
D18*
%TO.P,U301,11,PAD*%
%TO.N,GND*%
X77500000Y-57700000D03*
%TD*%
D11*
%TO.P,R202,1*%
%TO.N,Net-(R202-Pad1)*%
X73500000Y-78825000D03*
%TO.P,R202,2*%
%TO.N,/DAC/DAC_OUT2*%
X73500000Y-77000000D03*
%TD*%
D19*
%TO.P,C208,1*%
%TO.N,Net-(C208-Pad1)*%
X65800000Y-66750000D03*
%TO.P,C208,2*%
%TO.N,GND*%
X67700000Y-66750000D03*
%TD*%
%TO.P,C205,1*%
%TO.N,Net-(C205-Pad1)*%
X65800000Y-69250000D03*
%TO.P,C205,2*%
%TO.N,GND*%
X67700000Y-69250000D03*
%TD*%
D20*
%TO.P,C302,1*%
%TO.N,Net-(C302-Pad1)*%
X77525000Y-63525000D03*
%TO.P,C302,2*%
%TO.N,Net-(C302-Pad2)*%
X80475000Y-63525000D03*
%TD*%
D16*
%TO.P,C204,1*%
%TO.N,+3V3*%
X59950000Y-74500000D03*
%TO.P,C204,2*%
%TO.N,GND*%
X58050000Y-74500000D03*
%TD*%
D21*
%TO.P,C303,1,GND1*%
%TO.N,Net-(C302-Pad2)*%
X82500000Y-57800000D03*
%TO.P,C303,2,GND2*%
%TO.N,GND*%
X81500000Y-57800000D03*
%TO.P,C303,3,VOUT1*%
%TO.N,+3V3*%
X82500000Y-60750000D03*
%TO.P,C303,4,VOUT2*%
%TO.N,Net-(C303-Pad4)*%
X81500000Y-60750000D03*
%TD*%
D14*
%TO.P,NT201,1,1*%
%TO.N,/DAC/SDA*%
X45260000Y-47000000D03*
%TO.P,NT201,2,2*%
%TO.N,/DAC/HW0*%
X45260000Y-48000000D03*
%TD*%
D12*
%TO.P,J103,1,Pin_1*%
%TO.N,/DAC/DAC_OUT1*%
X79975000Y-84212500D03*
D13*
%TO.P,J103,2,Pin_2*%
%TO.N,GND*%
X79975000Y-81672500D03*
%TO.P,J103,3,Pin_3*%
X79975000Y-79132500D03*
%TO.P,J103,4,Pin_4*%
%TO.N,/DAC/DAC_OUT2*%
X79975000Y-76592500D03*
%TD*%
D20*
%TO.P,C301,1*%
%TO.N,+5V*%
X78525000Y-53525000D03*
%TO.P,C301,2*%
%TO.N,GND*%
X81475000Y-53525000D03*
%TD*%
D12*
%TO.P,JP204,1,A*%
%TO.N,+3V3*%
X51870000Y-53870000D03*
D13*
%TO.P,JP204,2,C*%
%TO.N,Net-(JP204-Pad2)*%
X54410000Y-53870000D03*
%TO.P,JP204,3,B*%
%TO.N,Net-(JP204-Pad3)*%
X56950000Y-53870000D03*
%TD*%
D22*
%TO.P,H101,1,1*%
%TO.N,GND*%
X37250000Y-85250000D03*
%TD*%
D14*
%TO.P,NT202,1,1*%
%TO.N,/DAC/SCL*%
X47760000Y-47000000D03*
%TO.P,NT202,2,2*%
%TO.N,/DAC/HW1*%
X47760000Y-48000000D03*
%TD*%
D19*
%TO.P,C202,1*%
%TO.N,+3V3*%
X66050000Y-71750000D03*
%TO.P,C202,2*%
%TO.N,GND*%
X67950000Y-71750000D03*
%TD*%
D22*
%TO.P,H103,1,1*%
%TO.N,GND*%
X37250000Y-43500000D03*
%TD*%
D12*
%TO.P,JP205,1,A*%
%TO.N,Net-(JP204-Pad2)*%
X57620000Y-58620000D03*
D13*
%TO.P,JP205,2,C*%
%TO.N,/DAC/HW2*%
X60160000Y-58620000D03*
%TO.P,JP205,3,B*%
%TO.N,Net-(JP205-Pad3)*%
X62700000Y-58620000D03*
%TD*%
D22*
%TO.P,H102,1,1*%
%TO.N,GND*%
X88000000Y-43500000D03*
%TD*%
D12*
%TO.P,JP201,1,A*%
%TO.N,+3V3*%
X46725000Y-59120000D03*
D13*
%TO.P,JP201,2,C*%
%TO.N,/DAC/HW1*%
X49265000Y-59120000D03*
%TO.P,JP201,3,B*%
%TO.N,GND*%
X51805000Y-59120000D03*
%TD*%
D12*
%TO.P,J102,1,Pin_1*%
%TO.N,/DAC/SDA*%
X45210000Y-44250000D03*
D13*
%TO.P,J102,2,Pin_2*%
%TO.N,/DAC/SCL*%
X47750000Y-44250000D03*
%TO.P,J102,3,Pin_3*%
%TO.N,/DAC/ADDR0*%
X50290000Y-44250000D03*
%TO.P,J102,4,Pin_4*%
%TO.N,/DAC/ADDR1*%
X52830000Y-44250000D03*
%TD*%
D22*
%TO.P,H104,1,1*%
%TO.N,GND*%
X88000000Y-85250000D03*
%TD*%
D23*
%TO.P,R201,1*%
%TO.N,Net-(R201-Pad1)*%
X73500000Y-81750000D03*
%TO.P,R201,2*%
%TO.N,/DAC/DAC_OUT1*%
X73500000Y-83575000D03*
%TD*%
D19*
%TO.P,C203,1*%
%TO.N,/DAC/PGND*%
X65800000Y-64000000D03*
%TO.P,C203,2*%
%TO.N,GND*%
X67700000Y-64000000D03*
%TD*%
D16*
%TO.P,C211,2*%
%TO.N,GND*%
X59300000Y-64500000D03*
%TO.P,C211,1*%
%TO.N,+3V3*%
X61200000Y-64500000D03*
%TD*%
D14*
%TO.P,NT204,1,1*%
%TO.N,/DAC/ADDR0*%
X50260000Y-47000000D03*
%TO.P,NT204,2,2*%
%TO.N,/DAC/MUTE_CTRL*%
X50260000Y-48000000D03*
%TD*%
D24*
%TO.P,C206,1*%
%TO.N,Net-(C206-Pad1)*%
X55750000Y-71300000D03*
%TO.P,C206,2*%
%TO.N,GND*%
X55750000Y-73200000D03*
%TD*%
D12*
%TO.P,J101,1,Pin_1*%
%TO.N,GND*%
X75960000Y-47750000D03*
D13*
%TO.P,J101,2,Pin_2*%
%TO.N,+5V*%
X78500000Y-47750000D03*
%TD*%
D25*
%TO.P,C210,1*%
%TO.N,GND*%
X76250000Y-78862500D03*
%TO.P,C210,2*%
%TO.N,/DAC/DAC_OUT2*%
X76250000Y-76962500D03*
%TD*%
D10*
%TO.P,R206,1*%
%TO.N,Net-(JP206-Pad3)*%
X61837500Y-50750000D03*
%TO.P,R206,2*%
%TO.N,GND*%
X63662500Y-50750000D03*
%TD*%
D26*
%TO.P,U201,1,AVDD*%
%TO.N,+3V3*%
X58880000Y-72070000D03*
%TO.P,U201,2,CHIP_EN*%
%TO.N,/DAC/DAC_ENABLE*%
X59380000Y-72070000D03*
%TO.P,U201,3,MODE*%
%TO.N,/DAC/MODE*%
X59880000Y-72070000D03*
%TO.P,U201,4,VCCA*%
%TO.N,+3V3*%
X60380000Y-72070000D03*
%TO.P,U201,5,DGND*%
%TO.N,GND*%
X60880000Y-72070000D03*
%TO.P,U201,6,OUT1*%
%TO.N,Net-(R201-Pad1)*%
X61380000Y-72070000D03*
%TO.P,U201,7,GND_SNS*%
%TO.N,GND*%
X61880000Y-72070000D03*
D27*
%TO.P,U201,8,OUT2*%
%TO.N,Net-(R202-Pad1)*%
X62830000Y-71120000D03*
%TO.P,U201,9,AVCC_3V3*%
%TO.N,+3V3*%
X62830000Y-70620000D03*
%TO.P,U201,10,AVCC*%
%TO.N,Net-(C205-Pad1)*%
X62830000Y-70120000D03*
%TO.P,U201,11,AGND*%
%TO.N,GND*%
X62830000Y-69620000D03*
%TO.P,U201,12,BG_VREF*%
%TO.N,Net-(C208-Pad1)*%
X62830000Y-69120000D03*
%TO.P,U201,13,AGND_CP*%
%TO.N,GND*%
X62830000Y-68620000D03*
%TO.P,U201,14,PNEG*%
%TO.N,/DAC/PGND*%
X62830000Y-68120000D03*
D26*
%TO.P,U201,15,C2*%
%TO.N,Net-(C207-Pad1)*%
X61880000Y-67170000D03*
%TO.P,U201,16,C1*%
%TO.N,Net-(C207-Pad2)*%
X61380000Y-67170000D03*
%TO.P,U201,17,AVCC_CP*%
%TO.N,+3V3*%
X60880000Y-67170000D03*
%TO.P,U201,18,RT1*%
%TO.N,GND*%
X60380000Y-67170000D03*
%TO.P,U201,19,SS/ADDR1/HW2*%
%TO.N,/DAC/HW2*%
X59880000Y-67170000D03*
%TO.P,U201,20,MISO/ADDR0/MUTE_CTRL*%
%TO.N,/DAC/MUTE_CTRL*%
X59380000Y-67170000D03*
%TO.P,U201,21,SCLK/SCL/HW1*%
%TO.N,/DAC/HW1*%
X58880000Y-67170000D03*
D27*
%TO.P,U201,22,MOSI/SDA/HW0*%
%TO.N,/DAC/HW0*%
X57930000Y-68120000D03*
%TO.P,U201,23,DATA2*%
%TO.N,/DAC/DAC_SDO*%
X57930000Y-68620000D03*
%TO.P,U201,24,DATA1*%
%TO.N,/DAC/DAC_WS*%
X57930000Y-69120000D03*
%TO.P,U201,25,DATA_CLK*%
%TO.N,/DAC/DAC_BCK*%
X57930000Y-69620000D03*
%TO.P,U201,26,MCLK/GPIO*%
%TO.N,/DAC/DAC_MCLK*%
X57930000Y-70120000D03*
%TO.P,U201,27,DGND*%
%TO.N,GND*%
X57930000Y-70620000D03*
%TO.P,U201,28,DVDD*%
%TO.N,Net-(C206-Pad1)*%
X57930000Y-71120000D03*
D28*
%TO.P,U201,29,PAD*%
%TO.N,GND*%
X60380000Y-69620000D03*
%TD*%
D25*
%TO.P,C207,1*%
%TO.N,Net-(C207-Pad1)*%
X63500000Y-65450000D03*
%TO.P,C207,2*%
%TO.N,Net-(C207-Pad2)*%
X63500000Y-63550000D03*
%TD*%
D24*
%TO.P,C209,1*%
%TO.N,GND*%
X76250000Y-81712500D03*
%TO.P,C209,2*%
%TO.N,/DAC/DAC_OUT1*%
X76250000Y-83612500D03*
%TD*%
D29*
%TO.N,+3V3*%
X72750000Y-61250000D03*
X46725000Y-69750000D03*
%TO.N,GND*%
X45250000Y-75750000D03*
X61500000Y-70750000D03*
D30*
X67850000Y-80600000D03*
X79250000Y-58025000D03*
X80500000Y-57750000D03*
X78250000Y-58025000D03*
X87250000Y-68775000D03*
X67100000Y-79850000D03*
X57250000Y-74500000D03*
X85750000Y-62000000D03*
X87250000Y-59025000D03*
X77750000Y-68775000D03*
X77500000Y-58025000D03*
X68250000Y-76500000D03*
X85500000Y-67275000D03*
X54500000Y-73250000D03*
X87250000Y-67275000D03*
X68750000Y-71750000D03*
X78250000Y-57275000D03*
X74250000Y-68775000D03*
X84000000Y-68775000D03*
D29*
X61500000Y-69600000D03*
D30*
X73750000Y-64500000D03*
X64750000Y-50750000D03*
X87250000Y-55775000D03*
X74250000Y-70525000D03*
X87250000Y-65525000D03*
X77750000Y-70525000D03*
X85500000Y-68775000D03*
X85500000Y-59025000D03*
X87250000Y-62025000D03*
X68600000Y-81350000D03*
X87250000Y-64025000D03*
X79250000Y-57275000D03*
X72250000Y-52250000D03*
X72500000Y-50000000D03*
X80000000Y-55500000D03*
X69750000Y-78000000D03*
X67500000Y-75750000D03*
X85500000Y-55775000D03*
X87250000Y-52275000D03*
X57250000Y-76750000D03*
X82500000Y-70525000D03*
X66000000Y-74250000D03*
X85500000Y-60525000D03*
X74000000Y-52250000D03*
D29*
X60400000Y-68500000D03*
D30*
X87250000Y-50775000D03*
D29*
X59250000Y-70750000D03*
D30*
X73750000Y-66250000D03*
D29*
X60380000Y-69620000D03*
D30*
X85500000Y-57275000D03*
X85500000Y-70275000D03*
X76000000Y-70525000D03*
X80750000Y-70525000D03*
X74000000Y-50000000D03*
X87250000Y-53775000D03*
X75500000Y-64500000D03*
X68500000Y-69250000D03*
X76750000Y-58025000D03*
X82500000Y-53525000D03*
X72250000Y-54000000D03*
X64850000Y-77600000D03*
X65600000Y-78350000D03*
X62500000Y-75250000D03*
X85500000Y-50775000D03*
X80750000Y-68775000D03*
X85500000Y-52275000D03*
X68500000Y-66750000D03*
X65250000Y-73500000D03*
X66750000Y-75000000D03*
X69000000Y-77250000D03*
X76000000Y-68775000D03*
D29*
X61500000Y-68500000D03*
D30*
X86000000Y-64000000D03*
X63350000Y-76100000D03*
X85500000Y-49025000D03*
X75500000Y-66250000D03*
X85750000Y-65750000D03*
X77500000Y-57275000D03*
X76750000Y-57275000D03*
X82500000Y-68775000D03*
X85500000Y-53775000D03*
X80000000Y-56750000D03*
X66350000Y-79100000D03*
X79250000Y-68775000D03*
X73000000Y-55500000D03*
D29*
X59300000Y-69700000D03*
X59250000Y-68500000D03*
D30*
X64500000Y-72750000D03*
X87250000Y-60525000D03*
X68500000Y-64000000D03*
X84000000Y-70525000D03*
X59250000Y-63500000D03*
X87250000Y-57275000D03*
X64150000Y-76900000D03*
D29*
X60400000Y-70800000D03*
D30*
X79250000Y-70525000D03*
%TO.N,+3V3*%
X81750000Y-59525000D03*
X61000000Y-76750000D03*
X80000000Y-59525000D03*
X60750000Y-66000000D03*
X61000000Y-74500000D03*
X58500000Y-72750000D03*
X82500000Y-59525000D03*
X54000000Y-50750000D03*
X60500000Y-73000000D03*
X64000000Y-70750000D03*
X80750000Y-59525000D03*
%TD*%
D31*
%TO.N,+3V3*%
X73912500Y-61250000D02*
X74250000Y-60912500D01*
X72750000Y-61250000D02*
X73912500Y-61250000D01*
D32*
%TO.N,/DAC/HW0*%
X53635000Y-68120000D02*
X49265000Y-63750000D01*
X57930000Y-68120000D02*
X53635000Y-68120000D01*
%TO.N,GND*%
X61880000Y-72070000D02*
X61880000Y-71130000D01*
D31*
X59250000Y-63500000D02*
X59250000Y-64200000D01*
D32*
%TO.N,/DAC/HW2*%
X58000000Y-65500000D02*
X58000000Y-60780000D01*
X59500000Y-65750000D02*
X58250000Y-65750000D01*
X58000000Y-60780000D02*
X60160000Y-58620000D01*
X59880000Y-66130000D02*
X59500000Y-65750000D01*
X58250000Y-65750000D02*
X58000000Y-65500000D01*
X59880000Y-67170000D02*
X59880000Y-66130000D01*
D31*
%TO.N,GND*%
X68500000Y-64000000D02*
X67650000Y-64000000D01*
X68500000Y-66750000D02*
X67545000Y-66750000D01*
X68500000Y-69250000D02*
X67595000Y-69250000D01*
X68750000Y-71750000D02*
X67845000Y-71750000D01*
D32*
X54550000Y-73200000D02*
X55750000Y-73200000D01*
X54500000Y-73250000D02*
X54550000Y-73200000D01*
X57250000Y-76750000D02*
X58050000Y-76750000D01*
D31*
X57250000Y-74500000D02*
X58050000Y-74500000D01*
D32*
%TO.N,/DAC/HW0*%
X45000000Y-54500000D02*
X48000000Y-57500000D01*
X48000000Y-62485000D02*
X49265000Y-63750000D01*
X45000000Y-48750000D02*
X45000000Y-54500000D01*
X48000000Y-57500000D02*
X48000000Y-62485000D01*
D33*
X45000000Y-48750000D02*
X45000000Y-48260000D01*
X45000000Y-48260000D02*
X45260000Y-48000000D01*
D32*
%TO.N,/DAC/HW1*%
X49265000Y-56515000D02*
X47760000Y-55010000D01*
X47760000Y-55010000D02*
X47760000Y-48000000D01*
X49265000Y-59120000D02*
X49265000Y-56515000D01*
D33*
%TO.N,Net-(JP203-Pad1)*%
X48337500Y-72662500D02*
X46750000Y-72662500D01*
X49025000Y-71975000D02*
X48337500Y-72662500D01*
X50000000Y-71975000D02*
X49025000Y-71975000D01*
%TO.N,Net-(JP203-Pad3)*%
X49392500Y-77662500D02*
X50000000Y-77055000D01*
X46750000Y-77662500D02*
X49392500Y-77662500D01*
%TO.N,GND*%
X45337500Y-75837500D02*
X45250000Y-75750000D01*
X46750000Y-75837500D02*
X45337500Y-75837500D01*
%TO.N,+3V3*%
X46725000Y-69750000D02*
X46725000Y-70812500D01*
D32*
X58880000Y-72370000D02*
X58880000Y-72070000D01*
X58500000Y-72750000D02*
X58880000Y-72370000D01*
%TO.N,/DAC/MODE*%
X57350000Y-73400000D02*
X56235000Y-74515000D01*
X56235000Y-74515000D02*
X50000000Y-74515000D01*
X59000000Y-73400000D02*
X57350000Y-73400000D01*
X59880000Y-72520000D02*
X59000000Y-73400000D01*
X59880000Y-72070000D02*
X59880000Y-72520000D01*
%TO.N,+3V3*%
X60380000Y-72880000D02*
X60380000Y-72070000D01*
X60500000Y-73000000D02*
X60380000Y-72880000D01*
X61000000Y-74500000D02*
X59950000Y-74500000D01*
%TO.N,/DAC/HW1*%
X49750000Y-61500000D02*
X49265000Y-61015000D01*
X52250000Y-61500000D02*
X49750000Y-61500000D01*
X49265000Y-61015000D02*
X49265000Y-59120000D01*
X57920000Y-67170000D02*
X52250000Y-61500000D01*
X58880000Y-67170000D02*
X57920000Y-67170000D01*
%TO.N,/DAC/MUTE_CTRL*%
X49250000Y-50000000D02*
X49750000Y-49500000D01*
X49250000Y-55250000D02*
X49250000Y-50000000D01*
X53000000Y-56500000D02*
X50500000Y-56500000D01*
X54250000Y-57750000D02*
X53000000Y-56500000D01*
X54250000Y-62500000D02*
X54250000Y-57750000D01*
X59250000Y-66250000D02*
X58000000Y-66250000D01*
X58000000Y-66250000D02*
X54250000Y-62500000D01*
X59380000Y-66380000D02*
X59250000Y-66250000D01*
X59380000Y-67170000D02*
X59380000Y-66380000D01*
X50500000Y-56500000D02*
X49250000Y-55250000D01*
D31*
%TO.N,+3V3*%
X60750000Y-66000000D02*
X60750000Y-66250000D01*
X61250000Y-65500000D02*
X60750000Y-66000000D01*
D32*
X60880000Y-67170000D02*
X60880000Y-66380000D01*
X60880000Y-66380000D02*
X60750000Y-66250000D01*
D31*
X61250000Y-65500000D02*
X61250000Y-64300000D01*
%TO.N,GND*%
X81475000Y-53525000D02*
X82500000Y-53525000D01*
D32*
X60880000Y-71370000D02*
X60880000Y-72070000D01*
D33*
X76387500Y-79000000D02*
X79842500Y-79000000D01*
D31*
X80500000Y-57750000D02*
X80550000Y-57800000D01*
D32*
X61880000Y-72380000D02*
X62750000Y-73250000D01*
X62830000Y-69620000D02*
X61520000Y-69620000D01*
D33*
X62750000Y-73250000D02*
X69750000Y-80250000D01*
X76250000Y-78862500D02*
X76250000Y-80250000D01*
D32*
X61880000Y-72070000D02*
X61880000Y-72380000D01*
X57930000Y-70620000D02*
X59120000Y-70620000D01*
D31*
X80550000Y-57800000D02*
X81500000Y-57800000D01*
D32*
X76500000Y-56237500D02*
X76500000Y-57025000D01*
X77500000Y-59162500D02*
X77500000Y-58025000D01*
X61500000Y-70750000D02*
X60880000Y-71370000D01*
D31*
X64500000Y-72750000D02*
X69750000Y-78000000D01*
X64750000Y-50750000D02*
X63662500Y-50750000D01*
D32*
X61620000Y-68620000D02*
X62830000Y-68620000D01*
D33*
X69750000Y-80250000D02*
X76250000Y-80250000D01*
X76250000Y-81712500D02*
X79935000Y-81712500D01*
D32*
X60380000Y-67170000D02*
X60380000Y-68480000D01*
D33*
X76250000Y-80250000D02*
X76250000Y-81712500D01*
D32*
%TO.N,/DAC/PGND*%
X64750000Y-66250000D02*
X64750000Y-65000000D01*
X62880000Y-68120000D02*
X64750000Y-66250000D01*
X64750000Y-65000000D02*
X65750000Y-64000000D01*
%TO.N,Net-(C208-Pad1)*%
X64250000Y-68250000D02*
X64250000Y-67750000D01*
X64250000Y-67750000D02*
X65250000Y-66750000D01*
X63380000Y-69120000D02*
X64250000Y-68250000D01*
X65250000Y-66750000D02*
X65645000Y-66750000D01*
X62700000Y-69120000D02*
X63380000Y-69120000D01*
D33*
%TO.N,/DAC/DAC_OUT1*%
X76250000Y-83612500D02*
X79375000Y-83612500D01*
X73500000Y-83575000D02*
X76212500Y-83575000D01*
%TO.N,/DAC/DAC_OUT2*%
X76287500Y-77000000D02*
X79567500Y-77000000D01*
D31*
X73500000Y-77000000D02*
X76212500Y-77000000D01*
D33*
%TO.N,/DAC/SDA*%
X45260000Y-47000000D02*
X45260000Y-44300000D01*
%TO.N,/DAC/SCL*%
X47750000Y-44250000D02*
X47750000Y-46990000D01*
%TO.N,/DAC/ADDR0*%
X50290000Y-44250000D02*
X50290000Y-46970000D01*
%TO.N,/DAC/ADDR1*%
X52830000Y-44250000D02*
X52830000Y-46905000D01*
X52830000Y-46905000D02*
X52735000Y-47000000D01*
%TO.N,Net-(JP204-Pad2)*%
X54410000Y-55410000D02*
X57620000Y-58620000D01*
X54410000Y-53870000D02*
X54410000Y-55410000D01*
%TO.N,Net-(JP204-Pad3)*%
X56912500Y-50750000D02*
X56912500Y-53832500D01*
%TO.N,/DAC/HW2*%
X53830000Y-49000000D02*
X52830000Y-48000000D01*
X60160000Y-58620000D02*
X60160000Y-56910000D01*
X59500000Y-50000000D02*
X58500000Y-49000000D01*
X59500000Y-56250000D02*
X59500000Y-50000000D01*
X60160000Y-56910000D02*
X59500000Y-56250000D01*
X58500000Y-49000000D02*
X53830000Y-49000000D01*
%TO.N,Net-(JP205-Pad3)*%
X64380000Y-56940000D02*
X62700000Y-58620000D01*
X64380000Y-53870000D02*
X64380000Y-56940000D01*
%TO.N,Net-(JP206-Pad3)*%
X61837500Y-50750000D02*
X61837500Y-53867500D01*
%TO.N,Net-(R201-Pad1)*%
X70250000Y-81750000D02*
X73500000Y-81750000D01*
X61500000Y-73000000D02*
X70250000Y-81750000D01*
D32*
X61500000Y-73000000D02*
X61380000Y-72880000D01*
X61380000Y-72880000D02*
X61380000Y-72070000D01*
%TO.N,Net-(R202-Pad1)*%
X63500000Y-73000000D02*
X63250000Y-72750000D01*
D33*
X63500000Y-73000000D02*
X69325000Y-78825000D01*
D32*
X63120000Y-71120000D02*
X62700000Y-71120000D01*
X63250000Y-72750000D02*
X63250000Y-71250000D01*
X63250000Y-71250000D02*
X63120000Y-71120000D01*
D33*
X69325000Y-78825000D02*
X73500000Y-78825000D01*
D32*
%TO.N,Net-(C205-Pad1)*%
X64750000Y-69250000D02*
X65695000Y-69250000D01*
X63880000Y-70120000D02*
X64750000Y-69250000D01*
X62700000Y-70120000D02*
X63880000Y-70120000D01*
%TO.N,Net-(C207-Pad1)*%
X63500000Y-65450000D02*
X63500000Y-66000000D01*
X61960000Y-67250000D02*
X61880000Y-67170000D01*
X62250000Y-67250000D02*
X61960000Y-67250000D01*
X63500000Y-66000000D02*
X62250000Y-67250000D01*
%TO.N,Net-(C207-Pad2)*%
X61380000Y-66370000D02*
X61380000Y-67170000D01*
X62250000Y-65500000D02*
X61380000Y-66370000D01*
X63500000Y-63750000D02*
X62250000Y-65000000D01*
X62250000Y-65000000D02*
X62250000Y-65500000D01*
D33*
%TO.N,/DAC/MUTE_CTRL*%
X49750000Y-49500000D02*
X50260000Y-48990000D01*
X50260000Y-48990000D02*
X50260000Y-48000000D01*
D32*
%TO.N,Net-(C206-Pad1)*%
X56880000Y-71120000D02*
X57800000Y-71120000D01*
X55750000Y-71420000D02*
X56580000Y-71420000D01*
X56580000Y-71420000D02*
X56880000Y-71120000D01*
%TO.N,+5V*%
X78000000Y-55250000D02*
X78000000Y-56237500D01*
X77500000Y-55750000D02*
X78000000Y-55250000D01*
X77500000Y-56237500D02*
X77500000Y-55750000D01*
%TO.N,Net-(C302-Pad1)*%
X77525000Y-63525000D02*
X77525000Y-61300000D01*
X77525000Y-61300000D02*
X77000000Y-60775000D01*
X77000000Y-60775000D02*
X77000000Y-59162500D01*
%TO.N,+3V3*%
X79637500Y-59162500D02*
X78500000Y-59162500D01*
X65500000Y-71750000D02*
X66050000Y-71750000D01*
X64370000Y-70620000D02*
X62700000Y-70620000D01*
X61000000Y-76750000D02*
X59900000Y-76750000D01*
D31*
X64000000Y-70750000D02*
X64500000Y-70750000D01*
D33*
X55232500Y-50750000D02*
X54000000Y-50750000D01*
D31*
X64500000Y-70750000D02*
X65500000Y-71750000D01*
D32*
X80000000Y-59525000D02*
X79637500Y-59162500D01*
%TO.N,Net-(C303-Pad4)*%
X78000000Y-59162500D02*
X78000000Y-60025000D01*
X78000000Y-60025000D02*
X78750000Y-60775000D01*
X78750000Y-60775000D02*
X81475000Y-60775000D01*
%TD*%
%TA.AperFunction,Conductor*%
%TO.N,Net-(R302-Pad2)*%
G36*
X75192121Y-56770002D02*
G01*
X75238614Y-56823658D01*
X75250000Y-56876000D01*
X75250000Y-58750000D01*
X76053011Y-58750000D01*
X76123014Y-58771236D01*
X76140379Y-58782839D01*
X76140382Y-58782840D01*
X76150699Y-58789734D01*
X76162868Y-58792155D01*
X76162869Y-58792155D01*
X76217814Y-58803084D01*
X76224933Y-58804500D01*
X76494500Y-58804500D01*
X76562621Y-58824502D01*
X76609114Y-58878158D01*
X76620500Y-58930500D01*
X76620500Y-59414845D01*
X76600498Y-59482966D01*
X76546842Y-59529459D01*
X76515214Y-59539131D01*
X75260284Y-59748286D01*
X75239570Y-59750000D01*
X73626000Y-59750000D01*
X73557879Y-59729998D01*
X73511386Y-59676342D01*
X73500000Y-59624000D01*
X73500000Y-56876000D01*
X73520002Y-56807879D01*
X73573658Y-56761386D01*
X73626000Y-56750000D01*
X75124000Y-56750000D01*
X75192121Y-56770002D01*
G37*
%TD.AperFunction*%
%TD*%
%TA.AperFunction,Conductor*%
%TO.N,GND*%
G36*
X76938685Y-46270002D02*
G01*
X76985178Y-46323658D01*
X76995281Y-46393932D01*
X76991140Y-46422731D01*
X76991139Y-46422746D01*
X76990500Y-46427190D01*
X76990500Y-46787256D01*
X76970498Y-46855377D01*
X76916842Y-46901870D01*
X76846568Y-46911974D01*
X76835868Y-46907087D01*
X76835559Y-46908507D01*
X76796452Y-46900000D01*
X76232115Y-46900000D01*
X76216876Y-46904475D01*
X76215671Y-46905865D01*
X76214000Y-46913548D01*
X76214000Y-48581885D01*
X76218475Y-48597124D01*
X76219865Y-48598329D01*
X76227548Y-48600000D01*
X76791883Y-48600000D01*
X76829001Y-48589101D01*
X76899998Y-48589101D01*
X76959724Y-48627484D01*
X76989217Y-48692065D01*
X76990500Y-48709997D01*
X76990500Y-49161876D01*
X76970520Y-49229961D01*
X75345469Y-51760399D01*
X75327747Y-51792876D01*
X75326815Y-51794918D01*
X75326808Y-51794932D01*
X75313801Y-51823431D01*
X75312866Y-51825480D01*
X75299939Y-51860159D01*
X75256098Y-52009558D01*
X75248236Y-52045718D01*
X75243138Y-52081197D01*
X75240500Y-52118106D01*
X75240500Y-53097810D01*
X75241986Y-53125545D01*
X75244865Y-53152328D01*
X75275123Y-53248961D01*
X75278085Y-53254385D01*
X75278087Y-53254390D01*
X75306993Y-53307325D01*
X75309149Y-53311273D01*
X75311844Y-53314873D01*
X75350714Y-53366797D01*
X75350718Y-53366801D01*
X75353411Y-53370399D01*
X75379601Y-53396589D01*
X75400260Y-53415147D01*
X75421234Y-53432050D01*
X75510960Y-53478987D01*
X75516901Y-53480731D01*
X75516900Y-53480731D01*
X75574758Y-53497720D01*
X75574762Y-53497721D01*
X75579081Y-53498989D01*
X75583529Y-53499629D01*
X75583536Y-53499630D01*
X75647742Y-53508861D01*
X75647749Y-53508861D01*
X75652190Y-53509500D01*
X76840322Y-53509500D01*
X76908443Y-53529502D01*
X76929417Y-53546405D01*
X77453595Y-54070583D01*
X77487621Y-54132895D01*
X77490500Y-54159678D01*
X77490500Y-55170616D01*
X77470498Y-55238737D01*
X77453595Y-55259711D01*
X77269784Y-55443522D01*
X77251036Y-55458664D01*
X77249811Y-55459779D01*
X77241060Y-55465429D01*
X77234613Y-55473607D01*
X77234611Y-55473609D01*
X77220271Y-55491800D01*
X77216325Y-55496241D01*
X77216398Y-55496303D01*
X77213042Y-55500264D01*
X77209362Y-55503944D01*
X77199489Y-55517760D01*
X77143608Y-55561553D01*
X77096976Y-55570500D01*
X76900356Y-55570500D01*
X76896270Y-55571038D01*
X76896269Y-55571038D01*
X76863749Y-55575319D01*
X76863746Y-55575320D01*
X76854189Y-55576578D01*
X76845454Y-55580651D01*
X76845451Y-55580652D01*
X76762864Y-55619163D01*
X76752871Y-55623823D01*
X76673823Y-55702871D01*
X76669164Y-55712863D01*
X76669163Y-55712864D01*
X76630652Y-55795451D01*
X76630651Y-55795454D01*
X76626578Y-55804189D01*
X76620500Y-55850356D01*
X76620500Y-56624644D01*
X76621038Y-56628730D01*
X76621038Y-56628731D01*
X76623713Y-56649046D01*
X76626578Y-56670811D01*
X76630651Y-56679546D01*
X76630652Y-56679549D01*
X76653847Y-56729290D01*
X76673823Y-56772129D01*
X76752871Y-56851177D01*
X76762863Y-56855836D01*
X76762864Y-56855837D01*
X76845451Y-56894348D01*
X76845454Y-56894349D01*
X76854189Y-56898422D01*
X76863746Y-56899680D01*
X76863749Y-56899681D01*
X76896269Y-56903962D01*
X76900356Y-56904500D01*
X77099644Y-56904500D01*
X77103731Y-56903962D01*
X77136251Y-56899681D01*
X77136254Y-56899680D01*
X77145811Y-56898422D01*
X77154548Y-56894348D01*
X77154551Y-56894347D01*
X77196751Y-56874669D01*
X77266942Y-56864008D01*
X77303249Y-56874669D01*
X77345449Y-56894347D01*
X77345452Y-56894348D01*
X77354189Y-56898422D01*
X77363746Y-56899680D01*
X77363749Y-56899681D01*
X77396269Y-56903962D01*
X77400356Y-56904500D01*
X77599644Y-56904500D01*
X77603731Y-56903962D01*
X77636251Y-56899681D01*
X77636254Y-56899680D01*
X77645811Y-56898422D01*
X77654548Y-56894348D01*
X77654551Y-56894347D01*
X77696751Y-56874669D01*
X77766942Y-56864008D01*
X77803249Y-56874669D01*
X77845449Y-56894347D01*
X77845452Y-56894348D01*
X77854189Y-56898422D01*
X77863746Y-56899680D01*
X77863749Y-56899681D01*
X77896269Y-56903962D01*
X77900356Y-56904500D01*
X78099644Y-56904500D01*
X78145811Y-56898422D01*
X78154550Y-56894347D01*
X78196751Y-56874669D01*
X78266943Y-56864008D01*
X78303249Y-56874669D01*
X78345450Y-56894347D01*
X78354189Y-56898422D01*
X78400356Y-56904500D01*
X78599644Y-56904500D01*
X78603731Y-56903962D01*
X78636251Y-56899681D01*
X78636254Y-56899680D01*
X78645811Y-56898422D01*
X78661545Y-56891085D01*
X78668385Y-56887896D01*
X78738577Y-56877236D01*
X78799378Y-56902937D01*
X78846731Y-56940066D01*
X78851714Y-56943973D01*
X78857374Y-56946807D01*
X78857376Y-56946808D01*
X78880749Y-56958510D01*
X78915198Y-56975757D01*
X78917788Y-56976776D01*
X78917794Y-56976779D01*
X78945605Y-56987724D01*
X78958241Y-56992697D01*
X79059090Y-57001731D01*
X79065243Y-57001070D01*
X79065247Y-57001070D01*
X79114174Y-56995814D01*
X79114176Y-56995814D01*
X79116676Y-56995545D01*
X79116643Y-56995238D01*
X79127852Y-56992625D01*
X79128976Y-56992551D01*
X79139092Y-56991888D01*
X79139266Y-56994545D01*
X79141766Y-56994023D01*
X79141615Y-56991723D01*
X79156807Y-56990727D01*
X79162792Y-56989123D01*
X79166364Y-56988533D01*
X79170447Y-56987927D01*
X79170931Y-56987863D01*
X79171993Y-56987724D01*
X79172000Y-56987723D01*
X79174316Y-56987418D01*
X79176603Y-56986942D01*
X79176614Y-56986940D01*
X79209764Y-56980038D01*
X79209771Y-56980036D01*
X79212073Y-56979557D01*
X79214334Y-56978908D01*
X79214345Y-56978905D01*
X79247332Y-56969432D01*
X79247362Y-56969423D01*
X79247968Y-56969249D01*
X79250729Y-56968394D01*
X79251754Y-56968076D01*
X79251756Y-56968075D01*
X79258291Y-56966050D01*
X79346278Y-56915947D01*
X79387191Y-56880496D01*
X79397811Y-56871294D01*
X79397816Y-56871289D01*
X79399934Y-56869454D01*
X79432056Y-56836165D01*
X79478987Y-56746446D01*
X79482415Y-56734770D01*
X79497720Y-56682648D01*
X79497721Y-56682644D01*
X79498989Y-56678325D01*
X79500070Y-56670811D01*
X79508861Y-56609664D01*
X79508861Y-56609657D01*
X79509500Y-56605216D01*
X79509500Y-54193437D01*
X80900000Y-54193437D01*
X80901207Y-54205691D01*
X80912085Y-54260377D01*
X80921398Y-54282862D01*
X80962867Y-54344924D01*
X80980076Y-54362133D01*
X81042138Y-54403602D01*
X81064623Y-54412915D01*
X81119309Y-54423793D01*
X81131563Y-54425000D01*
X81202885Y-54425000D01*
X81218124Y-54420525D01*
X81219329Y-54419135D01*
X81221000Y-54411452D01*
X81221000Y-54406885D01*
X81729000Y-54406885D01*
X81733475Y-54422124D01*
X81734865Y-54423329D01*
X81742548Y-54425000D01*
X81818437Y-54425000D01*
X81830691Y-54423793D01*
X81885377Y-54412915D01*
X81907862Y-54403602D01*
X81969924Y-54362133D01*
X81987133Y-54344924D01*
X82028602Y-54282862D01*
X82037915Y-54260377D01*
X82048793Y-54205691D01*
X82050000Y-54193437D01*
X82050000Y-53797115D01*
X82045525Y-53781876D01*
X82044135Y-53780671D01*
X82036452Y-53779000D01*
X81747115Y-53779000D01*
X81731876Y-53783475D01*
X81730671Y-53784865D01*
X81729000Y-53792548D01*
X81729000Y-54406885D01*
X81221000Y-54406885D01*
X81221000Y-53797115D01*
X81216525Y-53781876D01*
X81215135Y-53780671D01*
X81207452Y-53779000D01*
X80918115Y-53779000D01*
X80902876Y-53783475D01*
X80901671Y-53784865D01*
X80900000Y-53792548D01*
X80900000Y-54193437D01*
X79509500Y-54193437D01*
X79509500Y-53252885D01*
X80900000Y-53252885D01*
X80904475Y-53268124D01*
X80905865Y-53269329D01*
X80913548Y-53271000D01*
X81202885Y-53271000D01*
X81218124Y-53266525D01*
X81219329Y-53265135D01*
X81221000Y-53257452D01*
X81221000Y-53252885D01*
X81729000Y-53252885D01*
X81733475Y-53268124D01*
X81734865Y-53269329D01*
X81742548Y-53271000D01*
X82031885Y-53271000D01*
X82047124Y-53266525D01*
X82048329Y-53265135D01*
X82050000Y-53257452D01*
X82050000Y-52856563D01*
X82048793Y-52844309D01*
X82037915Y-52789623D01*
X82028602Y-52767138D01*
X81987133Y-52705076D01*
X81969924Y-52687867D01*
X81907862Y-52646398D01*
X81885377Y-52637085D01*
X81830691Y-52626207D01*
X81818437Y-52625000D01*
X81747115Y-52625000D01*
X81731876Y-52629475D01*
X81730671Y-52630865D01*
X81729000Y-52638548D01*
X81729000Y-53252885D01*
X81221000Y-53252885D01*
X81221000Y-52643115D01*
X81216525Y-52627876D01*
X81215135Y-52626671D01*
X81207452Y-52625000D01*
X81131563Y-52625000D01*
X81119309Y-52626207D01*
X81064623Y-52637085D01*
X81042138Y-52646398D01*
X80980076Y-52687867D01*
X80962867Y-52705076D01*
X80921398Y-52767138D01*
X80912085Y-52789623D01*
X80901207Y-52844309D01*
X80900000Y-52856563D01*
X80900000Y-53252885D01*
X79509500Y-53252885D01*
X79509500Y-52322077D01*
X79513203Y-52291755D01*
X80225732Y-49417884D01*
X80225964Y-49416949D01*
X80229289Y-49401548D01*
X80232063Y-49386501D01*
X80234450Y-49370910D01*
X80256657Y-49189062D01*
X80258092Y-49173361D01*
X80259021Y-49158088D01*
X80259500Y-49142333D01*
X80259500Y-46427190D01*
X80258014Y-46399455D01*
X80256940Y-46389468D01*
X80269545Y-46319602D01*
X80317922Y-46267639D01*
X80382218Y-46250000D01*
X83208592Y-46250000D01*
X83276713Y-46270002D01*
X83283335Y-46274563D01*
X87948743Y-49712232D01*
X87991719Y-49768744D01*
X88000000Y-49813669D01*
X88000000Y-69933492D01*
X87979998Y-70001613D01*
X87945088Y-70037523D01*
X86532150Y-71003031D01*
X86461062Y-71025000D01*
X73052802Y-71025000D01*
X72984681Y-71004998D01*
X72962973Y-70987356D01*
X71991803Y-70000000D01*
X71536171Y-69536774D01*
X71502662Y-69474183D01*
X71500000Y-69448418D01*
X71500000Y-61243096D01*
X72090729Y-61243096D01*
X72096111Y-61291843D01*
X72102765Y-61352109D01*
X72108113Y-61400553D01*
X72110723Y-61407684D01*
X72110723Y-61407686D01*
X72156940Y-61533980D01*
X72162553Y-61549319D01*
X72166789Y-61555622D01*
X72166789Y-61555623D01*
X72246101Y-61673651D01*
X72250908Y-61680805D01*
X72256527Y-61685918D01*
X72256528Y-61685919D01*
X72285304Y-61712103D01*
X72368076Y-61787419D01*
X72507293Y-61863008D01*
X72660522Y-61903207D01*
X72744477Y-61904526D01*
X72811319Y-61905576D01*
X72811322Y-61905576D01*
X72818916Y-61905695D01*
X72973332Y-61870329D01*
X73077507Y-61817935D01*
X73134121Y-61804500D01*
X73897425Y-61804500D01*
X73902701Y-61804610D01*
X73965174Y-61807228D01*
X74007876Y-61797212D01*
X74019551Y-61795049D01*
X74035254Y-61792898D01*
X74063018Y-61789095D01*
X74076993Y-61783047D01*
X74098263Y-61776013D01*
X74104722Y-61774498D01*
X74113083Y-61772537D01*
X74151537Y-61751397D01*
X74162183Y-61746182D01*
X74194563Y-61732170D01*
X74194567Y-61732168D01*
X74202446Y-61728758D01*
X74214275Y-61719179D01*
X74232863Y-61706688D01*
X74246215Y-61699348D01*
X74246729Y-61700282D01*
X74313048Y-61679500D01*
X74747756Y-61679500D01*
X74751153Y-61679131D01*
X74801597Y-61673651D01*
X74801598Y-61673651D01*
X74809448Y-61672798D01*
X74816841Y-61670026D01*
X74816843Y-61670026D01*
X74878606Y-61646872D01*
X74944764Y-61622071D01*
X74951943Y-61616691D01*
X74951946Y-61616689D01*
X75053224Y-61540785D01*
X75060404Y-61535404D01*
X75118833Y-61457442D01*
X75141689Y-61426946D01*
X75141691Y-61426943D01*
X75147071Y-61419764D01*
X75197798Y-61284448D01*
X75203109Y-61235565D01*
X75204131Y-61226153D01*
X75204131Y-61226152D01*
X75204500Y-61222756D01*
X75204500Y-60602244D01*
X75197798Y-60540552D01*
X75147071Y-60405236D01*
X75141691Y-60398057D01*
X75141689Y-60398054D01*
X75065785Y-60296776D01*
X75060404Y-60289596D01*
X74989326Y-60236326D01*
X74946811Y-60179467D01*
X74941785Y-60108648D01*
X74975845Y-60046355D01*
X75038176Y-60012365D01*
X75064891Y-60009500D01*
X75239570Y-60009500D01*
X75240819Y-60009448D01*
X75240839Y-60009448D01*
X75259690Y-60008669D01*
X75259698Y-60008669D01*
X75260969Y-60008616D01*
X75262247Y-60008510D01*
X75262251Y-60008510D01*
X75280369Y-60007011D01*
X75280382Y-60007010D01*
X75281683Y-60006902D01*
X75302946Y-60004255D01*
X75304210Y-60004044D01*
X75304233Y-60004041D01*
X76343786Y-59830782D01*
X76414268Y-59839313D01*
X76468949Y-59884596D01*
X76490500Y-59955068D01*
X76490500Y-67149000D01*
X76496430Y-67204159D01*
X76507816Y-67256501D01*
X76515166Y-67283291D01*
X76565269Y-67371278D01*
X76578402Y-67386434D01*
X76603222Y-67415078D01*
X76611762Y-67424934D01*
X76645051Y-67457056D01*
X76734770Y-67503987D01*
X76740706Y-67505730D01*
X76798568Y-67522720D01*
X76798572Y-67522721D01*
X76802891Y-67523989D01*
X76807339Y-67524629D01*
X76807346Y-67524630D01*
X76871552Y-67533861D01*
X76871559Y-67533861D01*
X76876000Y-67534500D01*
X78624000Y-67534500D01*
X78627346Y-67534140D01*
X78627351Y-67534140D01*
X78675795Y-67528932D01*
X78675801Y-67528931D01*
X78679159Y-67528570D01*
X78731501Y-67517184D01*
X78758291Y-67509834D01*
X78765142Y-67505933D01*
X78765144Y-67505932D01*
X78840899Y-67462794D01*
X78846278Y-67459731D01*
X78899934Y-67413238D01*
X78910531Y-67402256D01*
X78972227Y-67367125D01*
X79043122Y-67370926D01*
X79096427Y-67407236D01*
X79111762Y-67424934D01*
X79145051Y-67457056D01*
X79234770Y-67503987D01*
X79240706Y-67505730D01*
X79298568Y-67522720D01*
X79298572Y-67522721D01*
X79302891Y-67523989D01*
X79307339Y-67524629D01*
X79307346Y-67524630D01*
X79371552Y-67533861D01*
X79371559Y-67533861D01*
X79376000Y-67534500D01*
X84624000Y-67534500D01*
X84627346Y-67534140D01*
X84627351Y-67534140D01*
X84675795Y-67528932D01*
X84675801Y-67528931D01*
X84679159Y-67528570D01*
X84731501Y-67517184D01*
X84758291Y-67509834D01*
X84765142Y-67505933D01*
X84765144Y-67505932D01*
X84840899Y-67462794D01*
X84846278Y-67459731D01*
X84899934Y-67413238D01*
X84932056Y-67379949D01*
X84978987Y-67290230D01*
X84980730Y-67284294D01*
X84997720Y-67226432D01*
X84997721Y-67226428D01*
X84998989Y-67222109D01*
X85001096Y-67207460D01*
X85008861Y-67153448D01*
X85008861Y-67153441D01*
X85009500Y-67149000D01*
X85009500Y-57151000D01*
X85004899Y-57108200D01*
X85003932Y-57099205D01*
X85003931Y-57099199D01*
X85003570Y-57095841D01*
X84992184Y-57043499D01*
X84984834Y-57016709D01*
X84972783Y-56995545D01*
X84937794Y-56934101D01*
X84934731Y-56928722D01*
X84904945Y-56894347D01*
X84890078Y-56877189D01*
X84890073Y-56877184D01*
X84888238Y-56875066D01*
X84854949Y-56842944D01*
X84765230Y-56796013D01*
X84721501Y-56783173D01*
X84701432Y-56777280D01*
X84701428Y-56777279D01*
X84697109Y-56776011D01*
X84692661Y-56775371D01*
X84692654Y-56775370D01*
X84628448Y-56766139D01*
X84628441Y-56766139D01*
X84624000Y-56765500D01*
X82226046Y-56765500D01*
X82181616Y-56769332D01*
X82178934Y-56769798D01*
X82178927Y-56769799D01*
X82140159Y-56776536D01*
X82140138Y-56776540D01*
X82139108Y-56776719D01*
X82122606Y-56780142D01*
X82116056Y-56783173D01*
X82116055Y-56783173D01*
X82036334Y-56820060D01*
X82036329Y-56820063D01*
X82030714Y-56822661D01*
X82025711Y-56826307D01*
X82025707Y-56826309D01*
X81975619Y-56862807D01*
X81975609Y-56862815D01*
X81973335Y-56864472D01*
X81938527Y-56894937D01*
X81884209Y-56980386D01*
X81881969Y-56986162D01*
X81881969Y-56986163D01*
X81870125Y-57016709D01*
X81858543Y-57046581D01*
X81845730Y-57091035D01*
X81845775Y-57100049D01*
X81845815Y-57108200D01*
X81826151Y-57176419D01*
X81772726Y-57223177D01*
X81764645Y-57225338D01*
X81759768Y-57229127D01*
X81754000Y-57246986D01*
X81754000Y-58354739D01*
X81757641Y-58367140D01*
X81760663Y-58367492D01*
X81826011Y-58395246D01*
X81865979Y-58453923D01*
X81870794Y-58474709D01*
X81872744Y-58488273D01*
X81883383Y-58533291D01*
X81887841Y-58541119D01*
X81887841Y-58541120D01*
X81908359Y-58577152D01*
X81924685Y-58646246D01*
X81901065Y-58713198D01*
X81844997Y-58756752D01*
X81798866Y-58765500D01*
X81057392Y-58765500D01*
X80989271Y-58745498D01*
X80947901Y-58701850D01*
X80934731Y-58678722D01*
X80915883Y-58656970D01*
X80890078Y-58627189D01*
X80890073Y-58627184D01*
X80888238Y-58625066D01*
X80854949Y-58592944D01*
X80765230Y-58546013D01*
X80759294Y-58544270D01*
X80701432Y-58527280D01*
X80701428Y-58527279D01*
X80697109Y-58526011D01*
X80692661Y-58525371D01*
X80692654Y-58525370D01*
X80628448Y-58516139D01*
X80628441Y-58516139D01*
X80624000Y-58515500D01*
X78903608Y-58515500D01*
X78900535Y-58515803D01*
X78900528Y-58515803D01*
X78856060Y-58520183D01*
X78852984Y-58520486D01*
X78807057Y-58529621D01*
X78801341Y-58531989D01*
X78795412Y-58533787D01*
X78794766Y-58531657D01*
X78734134Y-58538170D01*
X78703267Y-58528369D01*
X78654552Y-58505653D01*
X78654546Y-58505651D01*
X78645811Y-58501578D01*
X78636254Y-58500320D01*
X78636251Y-58500319D01*
X78603731Y-58496038D01*
X78603730Y-58496038D01*
X78599644Y-58495500D01*
X78400356Y-58495500D01*
X78396270Y-58496038D01*
X78396269Y-58496038D01*
X78363749Y-58500319D01*
X78363746Y-58500320D01*
X78354189Y-58501578D01*
X78345452Y-58505652D01*
X78345449Y-58505653D01*
X78303249Y-58525331D01*
X78233058Y-58535992D01*
X78196751Y-58525331D01*
X78154551Y-58505653D01*
X78154548Y-58505652D01*
X78145811Y-58501578D01*
X78136254Y-58500320D01*
X78136251Y-58500319D01*
X78103731Y-58496038D01*
X78103730Y-58496038D01*
X78099644Y-58495500D01*
X77900356Y-58495500D01*
X77896270Y-58496038D01*
X77896269Y-58496038D01*
X77863749Y-58500319D01*
X77863746Y-58500320D01*
X77854189Y-58501578D01*
X77845454Y-58505651D01*
X77845451Y-58505652D01*
X77762864Y-58544163D01*
X77752871Y-58548823D01*
X77673823Y-58627871D01*
X77669164Y-58637863D01*
X77669163Y-58637864D01*
X77630652Y-58720451D01*
X77630651Y-58720454D01*
X77626578Y-58729189D01*
X77625320Y-58738748D01*
X77624922Y-58741768D01*
X77623507Y-58744966D01*
X77622623Y-58748000D01*
X77622217Y-58747882D01*
X77596200Y-58806695D01*
X77536935Y-58845787D01*
X77465943Y-58846632D01*
X77405765Y-58808962D01*
X77377860Y-58747859D01*
X77377377Y-58748000D01*
X77376412Y-58744689D01*
X77375078Y-58741768D01*
X77374680Y-58738748D01*
X77373422Y-58729189D01*
X77369349Y-58720454D01*
X77369348Y-58720451D01*
X77330837Y-58637864D01*
X77330836Y-58637863D01*
X77326177Y-58627871D01*
X77247129Y-58548823D01*
X77237136Y-58544163D01*
X77154549Y-58505652D01*
X77154546Y-58505651D01*
X77145811Y-58501578D01*
X77136254Y-58500320D01*
X77136251Y-58500319D01*
X77103731Y-58496038D01*
X77103730Y-58496038D01*
X77099644Y-58495500D01*
X76900356Y-58495500D01*
X76896270Y-58496038D01*
X76896269Y-58496038D01*
X76863749Y-58500319D01*
X76863746Y-58500320D01*
X76854189Y-58501578D01*
X76845452Y-58505652D01*
X76845449Y-58505653D01*
X76803249Y-58525331D01*
X76733058Y-58535992D01*
X76696751Y-58525331D01*
X76654551Y-58505653D01*
X76654548Y-58505652D01*
X76645811Y-58501578D01*
X76636254Y-58500320D01*
X76636251Y-58500319D01*
X76603731Y-58496038D01*
X76603730Y-58496038D01*
X76599644Y-58495500D01*
X76400356Y-58495500D01*
X76396270Y-58496038D01*
X76396269Y-58496038D01*
X76363749Y-58500319D01*
X76363746Y-58500320D01*
X76354189Y-58501578D01*
X76306632Y-58523754D01*
X76236442Y-58534415D01*
X76207193Y-58525740D01*
X76206874Y-58526566D01*
X76202535Y-58524892D01*
X76198346Y-58522911D01*
X76193912Y-58521566D01*
X76193907Y-58521564D01*
X76132783Y-58503022D01*
X76132784Y-58503022D01*
X76128343Y-58501675D01*
X76123754Y-58500994D01*
X76123753Y-58500994D01*
X76057609Y-58491182D01*
X76057608Y-58491182D01*
X76053011Y-58490500D01*
X75635500Y-58490500D01*
X75567379Y-58470498D01*
X75520886Y-58416842D01*
X75509500Y-58364500D01*
X75509500Y-58212026D01*
X81100001Y-58212026D01*
X81101209Y-58224285D01*
X81107670Y-58256771D01*
X81116987Y-58279264D01*
X81141634Y-58316152D01*
X81158848Y-58333366D01*
X81195735Y-58358013D01*
X81218228Y-58367330D01*
X81228232Y-58369321D01*
X81241106Y-58368169D01*
X81246000Y-58353014D01*
X81246000Y-58072115D01*
X81241525Y-58056876D01*
X81240135Y-58055671D01*
X81232452Y-58054000D01*
X81118116Y-58054000D01*
X81102877Y-58058475D01*
X81101672Y-58059865D01*
X81100001Y-58067548D01*
X81100001Y-58212026D01*
X75509500Y-58212026D01*
X75509500Y-57527885D01*
X81100000Y-57527885D01*
X81104475Y-57543124D01*
X81105865Y-57544329D01*
X81113548Y-57546000D01*
X81227885Y-57546000D01*
X81243124Y-57541525D01*
X81244329Y-57540135D01*
X81246000Y-57532452D01*
X81246000Y-57245261D01*
X81242359Y-57232860D01*
X81226540Y-57231017D01*
X81218230Y-57232670D01*
X81195735Y-57241987D01*
X81158848Y-57266634D01*
X81141634Y-57283848D01*
X81116986Y-57320736D01*
X81107670Y-57343227D01*
X81101207Y-57375718D01*
X81100000Y-57387972D01*
X81100000Y-57527885D01*
X75509500Y-57527885D01*
X75509500Y-56876000D01*
X75508994Y-56871294D01*
X75503932Y-56824205D01*
X75503931Y-56824199D01*
X75503570Y-56820841D01*
X75492184Y-56768499D01*
X75484834Y-56741709D01*
X75434731Y-56653722D01*
X75398373Y-56611762D01*
X75390078Y-56602189D01*
X75390073Y-56602184D01*
X75388238Y-56600066D01*
X75354949Y-56567944D01*
X75265230Y-56521013D01*
X75238213Y-56513080D01*
X75201432Y-56502280D01*
X75201428Y-56502279D01*
X75197109Y-56501011D01*
X75192661Y-56500371D01*
X75192654Y-56500370D01*
X75128448Y-56491139D01*
X75128441Y-56491139D01*
X75124000Y-56490500D01*
X73626000Y-56490500D01*
X73622654Y-56490860D01*
X73622649Y-56490860D01*
X73574205Y-56496068D01*
X73574199Y-56496069D01*
X73570841Y-56496430D01*
X73518499Y-56507816D01*
X73491709Y-56515166D01*
X73484858Y-56519067D01*
X73484856Y-56519068D01*
X73476406Y-56523880D01*
X73403722Y-56565269D01*
X73399046Y-56569321D01*
X73357621Y-56605216D01*
X73350066Y-56611762D01*
X73317944Y-56645051D01*
X73271013Y-56734770D01*
X73269270Y-56740706D01*
X73253031Y-56796013D01*
X73251011Y-56802891D01*
X73250371Y-56807339D01*
X73250370Y-56807346D01*
X73241139Y-56871552D01*
X73240500Y-56876000D01*
X73240500Y-59624000D01*
X73246430Y-59679159D01*
X73257816Y-59731501D01*
X73265166Y-59758291D01*
X73315269Y-59846278D01*
X73319321Y-59850954D01*
X73348472Y-59884596D01*
X73361762Y-59899934D01*
X73395051Y-59932056D01*
X73484770Y-59978987D01*
X73490704Y-59980729D01*
X73490708Y-59980731D01*
X73508739Y-59986025D01*
X73568466Y-60024408D01*
X73597959Y-60088988D01*
X73587856Y-60159262D01*
X73548807Y-60207747D01*
X73439596Y-60289596D01*
X73434215Y-60296776D01*
X73358311Y-60398054D01*
X73358309Y-60398057D01*
X73352929Y-60405236D01*
X73302202Y-60540552D01*
X73301349Y-60548400D01*
X73301349Y-60548402D01*
X73297579Y-60583108D01*
X73270337Y-60648670D01*
X73211974Y-60689096D01*
X73172316Y-60695500D01*
X73132811Y-60695500D01*
X73073855Y-60680856D01*
X72986274Y-60634484D01*
X72832633Y-60595892D01*
X72825034Y-60595852D01*
X72825033Y-60595852D01*
X72759181Y-60595507D01*
X72674221Y-60595062D01*
X72666841Y-60596834D01*
X72666839Y-60596834D01*
X72527563Y-60630271D01*
X72527560Y-60630272D01*
X72520184Y-60632043D01*
X72379414Y-60704700D01*
X72260039Y-60808838D01*
X72168950Y-60938444D01*
X72166190Y-60945524D01*
X72114311Y-61078587D01*
X72111406Y-61086037D01*
X72110414Y-61093570D01*
X72110414Y-61093571D01*
X72092696Y-61228158D01*
X72090729Y-61243096D01*
X71500000Y-61243096D01*
X71500000Y-55868437D01*
X73550000Y-55868437D01*
X73551207Y-55880691D01*
X73562085Y-55935377D01*
X73571398Y-55957862D01*
X73612867Y-56019924D01*
X73630076Y-56037133D01*
X73692138Y-56078602D01*
X73714623Y-56087915D01*
X73769309Y-56098793D01*
X73781563Y-56100000D01*
X73977885Y-56100000D01*
X73993124Y-56095525D01*
X73994329Y-56094135D01*
X73996000Y-56086452D01*
X73996000Y-56081885D01*
X74504000Y-56081885D01*
X74508475Y-56097124D01*
X74509865Y-56098329D01*
X74517548Y-56100000D01*
X74718437Y-56100000D01*
X74730691Y-56098793D01*
X74785377Y-56087915D01*
X74807862Y-56078602D01*
X74869924Y-56037133D01*
X74887133Y-56019924D01*
X74928602Y-55957862D01*
X74937915Y-55935377D01*
X74948793Y-55880691D01*
X74950000Y-55868437D01*
X74950000Y-55859615D01*
X74945525Y-55844376D01*
X74944135Y-55843171D01*
X74936452Y-55841500D01*
X74522115Y-55841500D01*
X74506876Y-55845975D01*
X74505671Y-55847365D01*
X74504000Y-55855048D01*
X74504000Y-56081885D01*
X73996000Y-56081885D01*
X73996000Y-55859615D01*
X73991525Y-55844376D01*
X73990135Y-55843171D01*
X73982452Y-55841500D01*
X73568115Y-55841500D01*
X73552876Y-55845975D01*
X73551671Y-55847365D01*
X73550000Y-55855048D01*
X73550000Y-55868437D01*
X71500000Y-55868437D01*
X71500000Y-55315385D01*
X73550000Y-55315385D01*
X73554475Y-55330624D01*
X73555865Y-55331829D01*
X73563548Y-55333500D01*
X73977885Y-55333500D01*
X73993124Y-55329025D01*
X73994329Y-55327635D01*
X73996000Y-55319952D01*
X73996000Y-55315385D01*
X74504000Y-55315385D01*
X74508475Y-55330624D01*
X74509865Y-55331829D01*
X74517548Y-55333500D01*
X74931885Y-55333500D01*
X74947124Y-55329025D01*
X74948329Y-55327635D01*
X74950000Y-55319952D01*
X74950000Y-55306563D01*
X74948793Y-55294309D01*
X74937915Y-55239623D01*
X74928602Y-55217138D01*
X74887133Y-55155076D01*
X74869924Y-55137867D01*
X74807862Y-55096398D01*
X74785377Y-55087085D01*
X74730691Y-55076207D01*
X74718437Y-55075000D01*
X74522115Y-55075000D01*
X74506876Y-55079475D01*
X74505671Y-55080865D01*
X74504000Y-55088548D01*
X74504000Y-55315385D01*
X73996000Y-55315385D01*
X73996000Y-55093115D01*
X73991525Y-55077876D01*
X73990135Y-55076671D01*
X73982452Y-55075000D01*
X73781563Y-55075000D01*
X73769309Y-55076207D01*
X73714623Y-55087085D01*
X73692138Y-55096398D01*
X73630076Y-55137867D01*
X73612867Y-55155076D01*
X73571398Y-55217138D01*
X73562085Y-55239623D01*
X73551207Y-55294309D01*
X73550000Y-55306563D01*
X73550000Y-55315385D01*
X71500000Y-55315385D01*
X71500000Y-48581885D01*
X75110000Y-48581885D01*
X75114475Y-48597124D01*
X75115865Y-48598329D01*
X75123548Y-48600000D01*
X75687885Y-48600000D01*
X75703124Y-48595525D01*
X75704329Y-48594135D01*
X75706000Y-48586452D01*
X75706000Y-48022115D01*
X75701525Y-48006876D01*
X75700135Y-48005671D01*
X75692452Y-48004000D01*
X75128115Y-48004000D01*
X75112876Y-48008475D01*
X75111671Y-48009865D01*
X75110000Y-48017548D01*
X75110000Y-48581885D01*
X71500000Y-48581885D01*
X71500000Y-48335089D01*
X71520002Y-48266968D01*
X71546693Y-48237179D01*
X72484093Y-47477885D01*
X75110000Y-47477885D01*
X75114475Y-47493124D01*
X75115865Y-47494329D01*
X75123548Y-47496000D01*
X75687885Y-47496000D01*
X75703124Y-47491525D01*
X75704329Y-47490135D01*
X75706000Y-47482452D01*
X75706000Y-46918115D01*
X75701525Y-46902876D01*
X75700135Y-46901671D01*
X75692452Y-46900000D01*
X75128115Y-46900000D01*
X75112876Y-46904475D01*
X75111671Y-46905865D01*
X75110000Y-46913548D01*
X75110000Y-47477885D01*
X72484093Y-47477885D01*
X73965321Y-46278090D01*
X74030845Y-46250756D01*
X74044628Y-46250000D01*
X76870564Y-46250000D01*
X76938685Y-46270002D01*
G37*
%TD.AperFunction*%
%TD*%
%TA.AperFunction,Conductor*%
%TO.N,GND*%
G36*
X60439067Y-67939046D02*
G01*
X60456704Y-67950381D01*
X60529537Y-68006267D01*
X60668439Y-68063803D01*
X60676623Y-68064880D01*
X60676625Y-68064881D01*
X60775988Y-68077962D01*
X60780075Y-68078500D01*
X60879987Y-68078500D01*
X60979924Y-68078499D01*
X60984009Y-68077961D01*
X60984013Y-68077961D01*
X61050344Y-68069229D01*
X61091561Y-68063803D01*
X61098026Y-68061125D01*
X61161974Y-68061125D01*
X61168439Y-68063803D01*
X61262008Y-68076121D01*
X61275981Y-68077961D01*
X61280075Y-68078500D01*
X61379987Y-68078500D01*
X61479924Y-68078499D01*
X61484009Y-68077961D01*
X61484013Y-68077961D01*
X61550344Y-68069229D01*
X61591561Y-68063803D01*
X61598026Y-68061125D01*
X61661974Y-68061125D01*
X61668439Y-68063803D01*
X61762008Y-68076121D01*
X61775981Y-68077961D01*
X61780075Y-68078500D01*
X61795501Y-68078500D01*
X61863622Y-68098502D01*
X61910115Y-68152158D01*
X61921501Y-68204499D01*
X61921501Y-68219924D01*
X61922039Y-68224009D01*
X61922039Y-68224013D01*
X61935119Y-68323374D01*
X61936197Y-68331561D01*
X61993733Y-68470464D01*
X61998760Y-68477015D01*
X61998762Y-68477019D01*
X62049619Y-68543298D01*
X62075219Y-68609518D01*
X62060954Y-68679067D01*
X62049619Y-68696704D01*
X61993733Y-68769537D01*
X61936197Y-68908439D01*
X61935120Y-68916623D01*
X61935119Y-68916625D01*
X61929394Y-68960111D01*
X61921500Y-69020075D01*
X61921501Y-69219924D01*
X61922039Y-69224009D01*
X61922039Y-69224013D01*
X61935119Y-69323374D01*
X61936197Y-69331561D01*
X61993733Y-69470464D01*
X61998760Y-69477015D01*
X61998762Y-69477019D01*
X62049619Y-69543298D01*
X62075219Y-69609518D01*
X62060954Y-69679067D01*
X62049619Y-69696704D01*
X61993733Y-69769537D01*
X61936197Y-69908439D01*
X61935120Y-69916623D01*
X61935119Y-69916625D01*
X61922038Y-70015987D01*
X61921500Y-70020075D01*
X61921501Y-70219924D01*
X61936197Y-70331561D01*
X61938875Y-70338026D01*
X61938875Y-70401974D01*
X61936197Y-70408439D01*
X61921500Y-70520075D01*
X61921501Y-70719924D01*
X61936197Y-70831561D01*
X61938875Y-70838026D01*
X61938875Y-70901974D01*
X61936197Y-70908439D01*
X61921500Y-71020075D01*
X61921501Y-71106666D01*
X61921501Y-71127034D01*
X61901500Y-71195155D01*
X61847844Y-71241648D01*
X61777570Y-71251753D01*
X61734536Y-71236858D01*
X61730463Y-71233733D01*
X61591561Y-71176197D01*
X61583377Y-71175120D01*
X61583375Y-71175119D01*
X61484012Y-71162038D01*
X61484011Y-71162038D01*
X61479925Y-71161500D01*
X61380013Y-71161500D01*
X61280076Y-71161501D01*
X61275991Y-71162039D01*
X61275987Y-71162039D01*
X61176626Y-71175119D01*
X61176624Y-71175120D01*
X61168439Y-71176197D01*
X61029536Y-71233733D01*
X61022985Y-71238760D01*
X61022981Y-71238762D01*
X60956702Y-71289619D01*
X60890482Y-71315219D01*
X60820933Y-71300954D01*
X60803296Y-71289619D01*
X60737014Y-71238760D01*
X60730463Y-71233733D01*
X60591561Y-71176197D01*
X60583377Y-71175120D01*
X60583375Y-71175119D01*
X60484012Y-71162038D01*
X60484011Y-71162038D01*
X60479925Y-71161500D01*
X60380013Y-71161500D01*
X60280076Y-71161501D01*
X60275991Y-71162039D01*
X60275987Y-71162039D01*
X60209656Y-71170771D01*
X60168439Y-71176197D01*
X60161974Y-71178875D01*
X60098026Y-71178875D01*
X60091561Y-71176197D01*
X59997992Y-71163879D01*
X59984012Y-71162038D01*
X59984011Y-71162038D01*
X59979925Y-71161500D01*
X59880013Y-71161500D01*
X59780076Y-71161501D01*
X59775991Y-71162039D01*
X59775987Y-71162039D01*
X59709656Y-71170771D01*
X59668439Y-71176197D01*
X59661974Y-71178875D01*
X59598026Y-71178875D01*
X59591561Y-71176197D01*
X59497992Y-71163879D01*
X59484012Y-71162038D01*
X59484011Y-71162038D01*
X59479925Y-71161500D01*
X59380013Y-71161500D01*
X59280076Y-71161501D01*
X59275991Y-71162039D01*
X59275987Y-71162039D01*
X59209656Y-71170771D01*
X59168439Y-71176197D01*
X59161974Y-71178875D01*
X59098026Y-71178875D01*
X59091561Y-71176197D01*
X58997992Y-71163879D01*
X58984012Y-71162038D01*
X58984011Y-71162038D01*
X58979925Y-71161500D01*
X58964499Y-71161500D01*
X58896378Y-71141498D01*
X58849885Y-71087842D01*
X58838499Y-71035500D01*
X58838499Y-71020076D01*
X58835887Y-71000230D01*
X58824881Y-70916626D01*
X58824880Y-70916624D01*
X58823803Y-70908439D01*
X58766267Y-70769536D01*
X58761240Y-70762985D01*
X58761238Y-70762981D01*
X58710381Y-70696702D01*
X58684781Y-70630482D01*
X58699046Y-70560933D01*
X58710381Y-70543296D01*
X58751792Y-70489327D01*
X58766267Y-70470463D01*
X58823803Y-70331561D01*
X58824882Y-70323371D01*
X58837962Y-70224012D01*
X58837962Y-70224011D01*
X58838500Y-70219925D01*
X58838499Y-70020076D01*
X58823803Y-69908439D01*
X58821125Y-69901974D01*
X58821125Y-69838026D01*
X58823803Y-69831561D01*
X58838500Y-69719925D01*
X58838499Y-69520076D01*
X58823803Y-69408439D01*
X58821125Y-69401974D01*
X58821125Y-69338026D01*
X58823803Y-69331561D01*
X58838500Y-69219925D01*
X58838499Y-69020076D01*
X58823803Y-68908439D01*
X58821125Y-68901974D01*
X58821125Y-68838026D01*
X58823803Y-68831561D01*
X58838500Y-68719925D01*
X58838499Y-68520076D01*
X58823803Y-68408439D01*
X58821125Y-68401974D01*
X58821125Y-68338026D01*
X58823803Y-68331561D01*
X58838500Y-68219925D01*
X58838500Y-68204499D01*
X58858502Y-68136378D01*
X58912158Y-68089885D01*
X58964499Y-68078499D01*
X58979924Y-68078499D01*
X58984009Y-68077961D01*
X58984013Y-68077961D01*
X59050344Y-68069229D01*
X59091561Y-68063803D01*
X59098026Y-68061125D01*
X59161974Y-68061125D01*
X59168439Y-68063803D01*
X59262008Y-68076121D01*
X59275981Y-68077961D01*
X59280075Y-68078500D01*
X59379987Y-68078500D01*
X59479924Y-68078499D01*
X59484009Y-68077961D01*
X59484013Y-68077961D01*
X59550344Y-68069229D01*
X59591561Y-68063803D01*
X59598026Y-68061125D01*
X59661974Y-68061125D01*
X59668439Y-68063803D01*
X59762008Y-68076121D01*
X59775981Y-68077961D01*
X59780075Y-68078500D01*
X59879987Y-68078500D01*
X59979924Y-68078499D01*
X59984009Y-68077961D01*
X59984013Y-68077961D01*
X60083374Y-68064881D01*
X60083376Y-68064880D01*
X60091561Y-68063803D01*
X60230464Y-68006267D01*
X60237015Y-68001240D01*
X60237019Y-68001238D01*
X60303298Y-67950381D01*
X60369518Y-67924781D01*
X60439067Y-67939046D01*
G37*
%TD.AperFunction*%
%TD*%
%TA.AperFunction,Conductor*%
%TO.N,+5V*%
G36*
X79915931Y-46295002D02*
G01*
X79936905Y-46311905D01*
X79963095Y-46338095D01*
X79997121Y-46400407D01*
X80000000Y-46427190D01*
X80000000Y-49142333D01*
X79999071Y-49157606D01*
X79976864Y-49339454D01*
X79974090Y-49354501D01*
X79625000Y-50762500D01*
X79250000Y-52275000D01*
X79250000Y-56605216D01*
X79229998Y-56673337D01*
X79176342Y-56719830D01*
X79140447Y-56730138D01*
X79105246Y-56734772D01*
X79097615Y-56737933D01*
X79089640Y-56740070D01*
X79088959Y-56737529D01*
X79031373Y-56743715D01*
X78967889Y-56711931D01*
X78948992Y-56689724D01*
X78940378Y-56676833D01*
X78940377Y-56676832D01*
X78933484Y-56666516D01*
X78849301Y-56610266D01*
X78775067Y-56595500D01*
X78757891Y-56595500D01*
X77875999Y-56595501D01*
X77807879Y-56575499D01*
X77761386Y-56521843D01*
X77750000Y-56469501D01*
X77750000Y-54000000D01*
X77000000Y-53250000D01*
X75652190Y-53250000D01*
X75584069Y-53229998D01*
X75563095Y-53213095D01*
X75536905Y-53186905D01*
X75502879Y-53124593D01*
X75500000Y-53097810D01*
X75500000Y-52118106D01*
X75505098Y-52082627D01*
X75548939Y-51933228D01*
X75563820Y-51900624D01*
X76416686Y-50572588D01*
X77191095Y-49366724D01*
X77191096Y-49366721D01*
X77195963Y-49359143D01*
X77250000Y-49275000D01*
X77250000Y-46427190D01*
X77270002Y-46359069D01*
X77286905Y-46338095D01*
X77313095Y-46311905D01*
X77375407Y-46277879D01*
X77402190Y-46275000D01*
X79847810Y-46275000D01*
X79915931Y-46295002D01*
G37*
%TD.AperFunction*%
%TD*%
%TA.AperFunction,Conductor*%
%TO.N,Net-(C302-Pad2)*%
G36*
X84692121Y-57045002D02*
G01*
X84738614Y-57098658D01*
X84750000Y-57151000D01*
X84750000Y-67149000D01*
X84729998Y-67217121D01*
X84676342Y-67263614D01*
X84624000Y-67275000D01*
X79376000Y-67275000D01*
X79307879Y-67254998D01*
X79261386Y-67201342D01*
X79250000Y-67149000D01*
X79250000Y-62151000D01*
X79270002Y-62082879D01*
X79323658Y-62036386D01*
X79376000Y-62025000D01*
X83250000Y-62025000D01*
X83250000Y-58525000D01*
X82244217Y-58525000D01*
X82176096Y-58504998D01*
X82129603Y-58451342D01*
X82119499Y-58381068D01*
X82125334Y-58357252D01*
X82149121Y-58289517D01*
X82149123Y-58289510D01*
X82151665Y-58282270D01*
X82154500Y-58252279D01*
X82154499Y-57347722D01*
X82151665Y-57317730D01*
X82108980Y-57196181D01*
X82111685Y-57195231D01*
X82100493Y-57140393D01*
X82126159Y-57074198D01*
X82183538Y-57032387D01*
X82226046Y-57025000D01*
X84624000Y-57025000D01*
X84692121Y-57045002D01*
G37*
%TD.AperFunction*%
%TD*%
%TA.AperFunction,Conductor*%
%TO.N,+3V3*%
G36*
X80692121Y-58795002D02*
G01*
X80738614Y-58848658D01*
X80750000Y-58901000D01*
X80750000Y-59025000D01*
X82864500Y-59025000D01*
X82932621Y-59045002D01*
X82979114Y-59098658D01*
X82990500Y-59151000D01*
X82990500Y-61149000D01*
X82970498Y-61217121D01*
X82916842Y-61263614D01*
X82864500Y-61275000D01*
X82280500Y-61275000D01*
X82212379Y-61254998D01*
X82165886Y-61201342D01*
X82154500Y-61149000D01*
X82154499Y-60300690D01*
X82154499Y-60297722D01*
X82151665Y-60267730D01*
X82108980Y-60146181D01*
X82032442Y-60042558D01*
X81928819Y-59966020D01*
X81807270Y-59923335D01*
X81799629Y-59922613D01*
X81799626Y-59922612D01*
X81788709Y-59921580D01*
X81777279Y-59920500D01*
X81500234Y-59920500D01*
X81222722Y-59920501D01*
X81219774Y-59920780D01*
X81219765Y-59920780D01*
X81200380Y-59922612D01*
X81200379Y-59922612D01*
X81192730Y-59923335D01*
X81071181Y-59966020D01*
X81028287Y-59997702D01*
X81024701Y-60000351D01*
X80958023Y-60024734D01*
X80949841Y-60025000D01*
X80750000Y-60025000D01*
X80750000Y-60149000D01*
X80729998Y-60217121D01*
X80676342Y-60263614D01*
X80624000Y-60275000D01*
X79038149Y-60275000D01*
X78968257Y-60253838D01*
X78435608Y-59898738D01*
X78390023Y-59844309D01*
X78379500Y-59793900D01*
X78379500Y-58930499D01*
X78399502Y-58862378D01*
X78453158Y-58815885D01*
X78505500Y-58804499D01*
X78775066Y-58804499D01*
X78810818Y-58797388D01*
X78837126Y-58792156D01*
X78837128Y-58792155D01*
X78849301Y-58789734D01*
X78857681Y-58784135D01*
X78903608Y-58775000D01*
X80624000Y-58775000D01*
X80692121Y-58795002D01*
G37*
%TD.AperFunction*%
%TD*%
%TA.AperFunction,Conductor*%
%TO.N,Net-(C302-Pad1)*%
G36*
X77094235Y-59516038D02*
G01*
X77122140Y-59577141D01*
X77122623Y-59577000D01*
X77123588Y-59580311D01*
X77124922Y-59583232D01*
X77126578Y-59595811D01*
X77130651Y-59604546D01*
X77130652Y-59604549D01*
X77169163Y-59687136D01*
X77173823Y-59697129D01*
X77237902Y-59761208D01*
X77253283Y-59779870D01*
X78728476Y-61968073D01*
X78750000Y-62038506D01*
X78750000Y-67149000D01*
X78729998Y-67217121D01*
X78676342Y-67263614D01*
X78624000Y-67275000D01*
X76876000Y-67275000D01*
X76807879Y-67254998D01*
X76761386Y-67201342D01*
X76750000Y-67149000D01*
X76750000Y-59825496D01*
X76770002Y-59757375D01*
X76786905Y-59736401D01*
X76826177Y-59697129D01*
X76830837Y-59687136D01*
X76869348Y-59604549D01*
X76869349Y-59604546D01*
X76873422Y-59595811D01*
X76875078Y-59583232D01*
X76876493Y-59580034D01*
X76877377Y-59577000D01*
X76877783Y-59577118D01*
X76903800Y-59518305D01*
X76963065Y-59479213D01*
X77034057Y-59478368D01*
X77094235Y-59516038D01*
G37*
%TD.AperFunction*%
%TD*%
M02*
