M48
; DRILL file {KiCad (6.0.7)} date Thu Sep  1 00:20:08 2022
; FORMAT={3:3/ absolute / metric / suppress leading zeros}
; #@! TF.CreationDate,2022-09-01T00:20:08+02:00
; #@! TF.GenerationSoftware,Kicad,Pcbnew,(6.0.7)
; #@! TF.FileFunction,MixedPlating,1,4
FMAT,2
METRIC,TZ
; #@! TA.AperFunction,Plated,PTH,ViaDrill
T1C0.400
; #@! TA.AperFunction,Plated,PTH,ComponentDrill
T2C1.000
; #@! TA.AperFunction,Plated,PTH,ComponentDrill
T3C3.200
%
G90
G05
T1
X45250Y-75750
X46725Y-69750
X54000Y-50750
X54500Y-73250
X57250Y-74500
X57250Y-76750
X58500Y-72750
X59250Y-63500
X59250Y-68500
X59250Y-70750
X59300Y-69700
X60380Y-69620
X60400Y-68500
X60400Y-70800
X60500Y-73000
X60750Y-66000
X61000Y-74500
X61000Y-76750
X61500Y-68500
X61500Y-69600
X61500Y-70750
X62500Y-75250
X63350Y-76100
X64000Y-70750
X64150Y-76900
X64500Y-72750
X64750Y-50750
X64850Y-77600
X65250Y-73500
X65600Y-78350
X66000Y-74250
X66350Y-79100
X66750Y-75000
X67100Y-79850
X67500Y-75750
X67850Y-80600
X68250Y-76500
X68500Y-64000
X68500Y-66750
X68500Y-69250
X68600Y-81350
X68750Y-71750
X69000Y-77250
X69750Y-78000
X72250Y-52250
X72250Y-54000
X72500Y-50000
X72750Y-61250
X73000Y-55500
X73750Y-64500
X73750Y-66250
X74000Y-50000
X74000Y-52250
X74250Y-68775
X74250Y-70525
X75500Y-64500
X75500Y-66250
X76000Y-68775
X76000Y-70525
X76750Y-57275
X76750Y-58025
X77500Y-57275
X77500Y-58025
X77750Y-68775
X77750Y-70525
X78250Y-57275
X78250Y-58025
X79250Y-57275
X79250Y-58025
X79250Y-68775
X79250Y-70525
X80000Y-55500
X80000Y-56750
X80000Y-59525
X80500Y-57750
X80750Y-59525
X80750Y-68775
X80750Y-70525
X81750Y-59525
X82500Y-53525
X82500Y-59525
X82500Y-68775
X82500Y-70525
X84000Y-68775
X84000Y-70525
X85500Y-49025
X85500Y-50775
X85500Y-52275
X85500Y-53775
X85500Y-55775
X85500Y-57275
X85500Y-59025
X85500Y-60525
X85500Y-67275
X85500Y-68775
X85500Y-70275
X85750Y-62000
X85750Y-65750
X86000Y-64000
X87250Y-50775
X87250Y-52275
X87250Y-53775
X87250Y-55775
X87250Y-57275
X87250Y-59025
X87250Y-60525
X87250Y-62025
X87250Y-64025
X87250Y-65525
X87250Y-67275
X87250Y-68775
T2
X45210Y-44250
X46725Y-59120
X46725Y-63750
X47750Y-44250
X49265Y-59120
X49265Y-63750
X50000Y-71975
X50000Y-74515
X50000Y-77055
X50290Y-44250
X51805Y-59120
X51805Y-63750
X51870Y-53870
X52830Y-44250
X54410Y-53870
X56950Y-53870
X57620Y-58620
X60160Y-58620
X61840Y-53870
X62700Y-58620
X64380Y-53870
X66920Y-53870
X75960Y-47750
X78500Y-47750
X79975Y-76593
X79975Y-79132
X79975Y-81673
X79975Y-84212
T3
X37250Y-43500
X37250Y-85250
X88000Y-43500
X88000Y-85250
T0
M30
